<svg xmlns="http://www.w3.org/2000/svg" width="10.143" height="10.143" viewBox="0 0 10.143 10.143">
  <path id="editar" d="M14.143,6.657A.517.517,0,0,0,14,6.3l-2.15-2.15a.514.514,0,0,0-.72,0L9.69,5.582h0L4.147,11.125a.517.517,0,0,0-.147.36v2.15a.509.509,0,0,0,.507.507h2.15A.506.506,0,0,0,7.043,14l5.513-5.543h0L14,7.043a.623.623,0,0,0,.112-.167.489.489,0,0,0,0-.122.332.332,0,0,0,0-.071ZM6.449,13.128H5.014V11.693L10.05,6.657l1.435,1.435ZM12.2,7.377,10.765,5.942l.72-.715,1.43,1.43Z" transform="translate(-4 -4)" fill="#fff"/>
</svg>
