<svg xmlns="http://www.w3.org/2000/svg" width="147.843" height="66.35" viewBox="0 0 147.843 66.35">
  <path id="logotipo-2" d="M0,33.175A33.174,33.174,0,1,1,33.174,66.35,33.2,33.2,0,0,1,0,33.175ZM28.035,46.881H38.314V19.469H28.035Zm104.8,12.354a9.88,9.88,0,0,1-3.5-2.5,12.364,12.364,0,0,1-2.422-4.415,21.318,21.318,0,0,1-.875-6.515,20.093,20.093,0,0,1,.875-6.249,13.056,13.056,0,0,1,2.422-4.455,10.072,10.072,0,0,1,3.5-2.667,9.906,9.906,0,0,1,4.13-.894,9.92,9.92,0,0,1,7.608,3.56,12.758,12.758,0,0,1,2.4,4.455,20.038,20.038,0,0,1,.876,6.249,21.261,21.261,0,0,1-.876,6.515,12.093,12.093,0,0,1-2.4,4.415,9.635,9.635,0,0,1-3.5,2.5,10.828,10.828,0,0,1-4.109.792A10.987,10.987,0,0,1,132.83,59.235ZM134.4,38.059a6.809,6.809,0,0,0-1.669,3,16.693,16.693,0,0,0-.59,4.749,17.266,17.266,0,0,0,.59,4.914,6.205,6.205,0,0,0,1.669,2.894,3.778,3.778,0,0,0,2.563.935,3.707,3.707,0,0,0,2.543-.935,6.067,6.067,0,0,0,1.646-2.894,17.293,17.293,0,0,0,.592-4.914,16.592,16.592,0,0,0-.592-4.749,6.651,6.651,0,0,0-1.646-3,3.5,3.5,0,0,0-2.543-1.042A3.562,3.562,0,0,0,134.4,38.059Zm-26.059,20.8a9.264,9.264,0,0,1-3.622-3.393,10.1,10.1,0,0,1-1.342-5.311,13.492,13.492,0,0,1,1.079-5.724,20.425,20.425,0,0,1,2.462-4.02l6.673-8.371h7.12l-8.279,9.912a2.162,2.162,0,0,1,.852-.5,4.651,4.651,0,0,1,1.609-.23,8.071,8.071,0,0,1,4.048,1.1,8.713,8.713,0,0,1,3.192,3.166,10.069,10.069,0,0,1-.1,9.87,9.606,9.606,0,0,1-3.622,3.414,10.152,10.152,0,0,1-5,1.252A10.945,10.945,0,0,1,108.338,58.859Zm2.891-12.077a4.425,4.425,0,0,0-1.567,1.583,4.273,4.273,0,0,0-.571,2.187,4.5,4.5,0,0,0,.571,2.228,4.425,4.425,0,0,0,1.567,1.583,4.139,4.139,0,0,0,2.155.582,4.044,4.044,0,0,0,2.137-.582,4.3,4.3,0,0,0,1.546-1.583,4.4,4.4,0,0,0,.59-2.228,4.176,4.176,0,0,0-.59-2.187,4.3,4.3,0,0,0-1.546-1.583,4.044,4.044,0,0,0-2.137-.582A4.139,4.139,0,0,0,111.229,46.782ZM85.775,58.943A10.136,10.136,0,0,1,82.461,56.3a8.9,8.9,0,0,1-1.629-3.02l5.576-2.831a7.745,7.745,0,0,0,.814,1.873,5.773,5.773,0,0,0,1.5,1.667,3.509,3.509,0,0,0,2.115.666,4.223,4.223,0,0,0,2.117-.5A3.462,3.462,0,0,0,94.3,52.8a4.038,4.038,0,0,0,.486-2,3.264,3.264,0,0,0-.547-1.938,3.177,3.177,0,0,0-1.426-1.145,5.042,5.042,0,0,0-1.974-.376h-.528V42.889H91a3.732,3.732,0,0,0,1.69-.376,2.949,2.949,0,0,0,1.178-1.1A3.194,3.194,0,0,0,94.32,39.7a3.11,3.11,0,0,0-.875-2.228,3.312,3.312,0,0,0-2.543-.935,4.044,4.044,0,0,0-1.79.374,3.928,3.928,0,0,0-1.262.917,5.065,5.065,0,0,0-.813,1.123,3.862,3.862,0,0,0-.367.979l-4.923-2.395a7.154,7.154,0,0,1,.875-1.873,8.417,8.417,0,0,1,1.769-1.978,9.584,9.584,0,0,1,2.767-1.542,11.065,11.065,0,0,1,3.806-.6,10.11,10.11,0,0,1,4.536.977,7.6,7.6,0,0,1,3.131,2.687,7.156,7.156,0,0,1,1.14,4.039,6.553,6.553,0,0,1-.489,2.561,5.975,5.975,0,0,1-1.261,1.917,3.668,3.668,0,0,1-1.627,1,3.968,3.968,0,0,1,1.993.938,6.484,6.484,0,0,1,1.708,2.165,6.733,6.733,0,0,1,.714,3.185,8.49,8.49,0,0,1-1.3,4.666,8.963,8.963,0,0,1-3.518,3.184,12.142,12.142,0,0,1-10.213.084Zm51.368-34.784a4.636,4.636,0,0,1-1.871-1.925,6.367,6.367,0,0,1-.642-2.947V10.843h3.031V19.12a3.892,3.892,0,0,0,.286,1.583,2.161,2.161,0,0,0,.832.977,2.412,2.412,0,0,0,1.272.324,2.35,2.35,0,0,0,1.252-.324,2.135,2.135,0,0,0,.813-.977,3.812,3.812,0,0,0,.3-1.583V10.843h3.042v8.444a6.3,6.3,0,0,1-.652,2.947,4.647,4.647,0,0,1-1.862,1.925,5.816,5.816,0,0,1-2.887.677A5.9,5.9,0,0,1,137.143,24.159Zm-27.151.355a8.968,8.968,0,0,1-1.757-.7,5.589,5.589,0,0,1-.806-.5l1.517-2.612c.082.062.236.162.468.3a9.139,9.139,0,0,0,.863.438,8.207,8.207,0,0,0,1.078.373,4.322,4.322,0,0,0,1.14.157,2.263,2.263,0,0,0,1.4-.363,1.2,1.2,0,0,0,.469-.98,1.229,1.229,0,0,0-.3-.8,2.97,2.97,0,0,0-.885-.666,14.2,14.2,0,0,0-1.475-.677,9.283,9.283,0,0,1-1.659-.886,4.279,4.279,0,0,1-1.242-1.3,3.661,3.661,0,0,1-.475-1.936,3.237,3.237,0,0,1,.629-2,4.13,4.13,0,0,1,1.678-1.311,5.539,5.539,0,0,1,2.239-.46,7.608,7.608,0,0,1,2.186.283,7.7,7.7,0,0,1,1.5.593,6.163,6.163,0,0,1,.692.415L115.8,14.394a6.611,6.611,0,0,0-.56-.366,4.7,4.7,0,0,0-.925-.426,3.287,3.287,0,0,0-1.109-.188,2.461,2.461,0,0,0-1.272.293.918.918,0,0,0-.478.844,1.082,1.082,0,0,0,.256.7,2.791,2.791,0,0,0,.793.582c.36.181.813.379,1.364.593a9.431,9.431,0,0,1,1.413.666,5.052,5.052,0,0,1,1.16.917,3.823,3.823,0,0,1,1.1,2.769,3.757,3.757,0,0,1-.416,1.811,3.66,3.66,0,0,1-1.141,1.259,4.968,4.968,0,0,1-1.625.739,7.022,7.022,0,0,1-1.882.251A8.864,8.864,0,0,1,109.992,24.514Zm17.227.07V13.571h-3.207V10.843h9.441v2.728H130.26V24.584Zm-7.736,0V10.843h3.043V24.584Zm-23.339,0-5.2-10.44v10.44h-3.04V10.843h4.15l5.216,10.382V10.843h3.041V24.584Zm-13.19,0V10.843H86V24.584Z" fill="#e5e1e6"/>
</svg>
