<svg xmlns="http://www.w3.org/2000/svg" width="42" height="42" viewBox="0 0 42 42">
  <g id="Grupo_11286" data-name="Grupo 11286" transform="translate(-1744 -987)">
    <circle id="Elipse_569" data-name="Elipse 569" cx="21" cy="21" r="21" transform="translate(1744 987)" fill="#f42eb2"/>
    <path id="Unión_1" data-name="Unión 1" d="M11.015,22a1.376,1.376,0,0,1-1.374-1.377l.011-8.248H1.375a1.375,1.375,0,1,1,0-2.75H9.656l.011-8.252a1.375,1.375,0,1,1,2.75,0l-.011,8.249h8.219a1.375,1.375,0,1,1,0,2.75H12.4l-.011,8.252A1.376,1.376,0,0,1,11.017,22Z" transform="translate(1754 997)" fill="#fff"/>
  </g>
</svg>
