<svg xmlns="http://www.w3.org/2000/svg" width="36" height="35" viewBox="0 0 36 35">
  <g id="add-image-chat" transform="translate(-28 -851)">
    <rect id="camera-chat" width="36" height="35" rx="17.5" transform="translate(28 851)" fill="#f42eb2"/>
    <path id="Trazado_31617" data-name="Trazado 31617" d="M20.77,9.959H19.507l-.316-.986A2.956,2.956,0,0,0,16.39,7H11.339a2.96,2.96,0,0,0-2.8,2.022l-.316.986H6.959A2.962,2.962,0,0,0,4,12.968V20.86a2.962,2.962,0,0,0,2.959,2.959H20.77a2.962,2.962,0,0,0,2.959-2.959V12.968A2.956,2.956,0,0,0,20.77,9.959Zm.986,10.851a.989.989,0,0,1-.986.986H6.959a.989.989,0,0,1-.986-.986V12.919a.989.989,0,0,1,.986-.986H8.932a.985.985,0,0,0,.986-.671l.533-1.618a.993.993,0,0,1,.937-.671h5.051a.993.993,0,0,1,.937.671l.533,1.618a.988.988,0,0,0,.888.671H20.77a.989.989,0,0,1,.986.986Zm-7.892-8.878a3.946,3.946,0,1,0,3.946,3.946A3.945,3.945,0,0,0,13.865,11.932Zm0,5.919a1.973,1.973,0,1,1,1.973-1.973A1.972,1.972,0,0,1,13.865,17.851Z" transform="translate(32 852)" fill="#fff"/>
  </g>
</svg>
