<svg xmlns="http://www.w3.org/2000/svg" width="34.704" height="29.584" viewBox="0 0 34.704 29.584">
  <path id="add-image-proyecto" d="M33.5,12.205H31.276l-.555-1.735A5.2,5.2,0,0,0,25.793,7H16.909a5.206,5.206,0,0,0-4.928,3.557l-.555,1.735H9.205A5.21,5.21,0,0,0,4,17.5V31.379a5.21,5.21,0,0,0,5.205,5.205H33.5A5.21,5.21,0,0,0,38.7,31.379V17.5A5.2,5.2,0,0,0,33.5,12.205Zm1.735,19.087A1.74,1.74,0,0,1,33.5,33.027H9.205A1.74,1.74,0,0,1,7.47,31.292V17.411a1.74,1.74,0,0,1,1.735-1.735h3.47a1.733,1.733,0,0,0,1.735-1.18l.937-2.846A1.747,1.747,0,0,1,17,10.47H25.88a1.747,1.747,0,0,1,1.648,1.18l.937,2.846a1.737,1.737,0,0,0,1.562,1.18H33.5a1.74,1.74,0,0,1,1.735,1.735ZM21.351,15.676a6.941,6.941,0,1,0,6.941,6.941A6.939,6.939,0,0,0,21.351,15.676Zm0,10.411a3.47,3.47,0,1,1,3.47-3.47A3.469,3.469,0,0,1,21.351,26.086Z" transform="translate(-4 -7)" fill="#c9c9d6" style="mix-blend-mode: multiply;isolation: isolate"/>
</svg>
