<svg id="Grupo_26" data-name="Grupo 26" xmlns="http://www.w3.org/2000/svg" width="17.681" height="17.681" viewBox="0 0 17.681 17.681">
  <path id="Trazado_46776" data-name="Trazado 46776" d="M12.841,12.367H12.1v-.737a.737.737,0,0,0-1.473,0v.737H9.894a.737.737,0,1,0,0,1.473h.737v.737a.737.737,0,1,0,1.473,0v-.737h.737a.737.737,0,1,0,0-1.473ZM16.524,7.21H11.9l-.236-.737A2.208,2.208,0,0,0,9.57,5H6.21A2.212,2.212,0,0,0,4,7.21v9.577A2.212,2.212,0,0,0,6.21,19H16.524a2.212,2.212,0,0,0,2.21-2.21V9.42A2.212,2.212,0,0,0,16.524,7.21Zm.737,9.577a.739.739,0,0,1-.737.737H6.21a.739.739,0,0,1-.737-.737V7.21a.739.739,0,0,1,.737-.737H9.57a.742.742,0,0,1,.7.5l.4,1.208a.742.742,0,0,0,.7.5h5.157a.739.739,0,0,1,.737.737Z" transform="translate(-2.527 -3.158)" fill="#2a2a32"/>
  <path id="Trazado_46777" data-name="Trazado 46777" d="M0,0H17.681V17.681H0Z" fill="none"/>
</svg>
