<svg xmlns="http://www.w3.org/2000/svg" width="35" height="35" viewBox="0 0 35 35">
  <g id="ajustes-chat" transform="translate(-379 -73)">
    <path id="Trazado_31610" data-name="Trazado 31610" d="M17.5,0A17.5,17.5,0,1,1,0,17.5,17.5,17.5,0,0,1,17.5,0Z" transform="translate(379 73)" fill="#f42eb2"/>
    <g id="Grupo_10976" data-name="Grupo 10976" transform="translate(381 75)">
      <path id="Trazado_31635" data-name="Trazado 31635" d="M15.132,20.925a2.132,2.132,0,1,0,2.132,2.132A2.138,2.138,0,0,0,15.132,20.925Zm0-7.463a2.132,2.132,0,1,0,2.132,2.132A2.138,2.138,0,0,0,15.132,13.463Zm0-7.463a2.132,2.132,0,1,0,2.132,2.132A2.138,2.138,0,0,0,15.132,6Z" fill="#fff"/>
    </g>
  </g>
</svg>
