
<svg xmlns="http://www.w3.org/2000/svg" viewBox="0 0 24 24" width="100" height="100" fill="none">
  <circle cx="12" cy="12" r="12" fill="#1769FF"/>
  <path d="M6.5 8H10C11.38 8 12.5 9.12 12.5 10.5C12.5 11.4 12.06 12.19 11.38 12.63C12.34 12.96 13 13.78 13 14.75C13 16.16 11.91 17.25 10.5 17.25H6.5V8ZM8.5 9.5V11H10C10.55 11 11 10.55 11 10C11 9.45 10.55 9.5 10 9.5H8.5ZM8.5 12.5V15H10.5C11.05 15 11.5 14.55 11.5 14C11.5 13.45 11.05 13 10.5 13H8.5ZM15.5 10C14.95 10 14.5 9.55 14.5 9C14.5 8.45 14.95 8 15.5 8C16.05 8 16.5 8.45 16.5 9C16.5 9.55 16.05 10 15.5 10ZM14.5 15C14.5 14.45 14.95 14 15.5 14C16.05 14 16.5 14.45 16.5 15H18C18 13.62 16.88 12.5 15.5 12.5C14.12 12.5 13 13.62 13 15C13 16.38 14.12 17.5 15.5 17.5C16.28 17.5 16.97 17.11 17.36 16.5H14.5V15ZM15.5 16.5C15.22 16.5 15 16.28 15 16C15 15.72 15.22 15.5 15.5 15.5C15.78 15.5 16 15.72 16 16C16 16.28 15.78 16.5 15.5 16.5Z" fill="#FFFFFF"/>
</svg>
