<svg id="bell" xmlns="http://www.w3.org/2000/svg" width="28.373" height="28.373" viewBox="0 0 28.373 28.373">
  <path id="Trazado_29367" data-name="Trazado 29367" d="M24.551,17.217V13.458A7.1,7.1,0,0,0,18.64,6.471V5.182a1.182,1.182,0,1,0-2.364,0V6.471a7.1,7.1,0,0,0-5.911,6.987v3.759A3.551,3.551,0,0,0,8,20.551v2.364A1.186,1.186,0,0,0,9.182,24.1h3.712a4.729,4.729,0,0,0,9.127,0h3.712a1.186,1.186,0,0,0,1.182-1.182V20.551A3.551,3.551,0,0,0,24.551,17.217ZM12.729,13.458a4.729,4.729,0,1,1,9.458,0V17H12.729ZM17.458,25.28A2.367,2.367,0,0,1,15.424,24.1h4.067A2.367,2.367,0,0,1,17.458,25.28Zm7.093-3.547H10.364V20.551a1.186,1.186,0,0,1,1.182-1.182H23.369a1.186,1.186,0,0,1,1.182,1.182Z" transform="translate(-3.271 -1.636)" fill="#fff"/>
  <path id="Trazado_29368" data-name="Trazado 29368" d="M0,0H28.373V28.373H0Z" fill="none"/>
</svg>
