<svg xmlns="http://www.w3.org/2000/svg" width="20.589" height="23.527" viewBox="0 0 20.589 23.527">
  <path id="Trazado_46803" data-name="Trazado 46803" d="M30.057,18.822H12.617l5.338-6.411a1.472,1.472,0,0,0-2.265-1.882L8.338,19.351a1.751,1.751,0,0,0-.132.221.186.186,0,0,1-.1.191,1.443,1.443,0,0,0-.1.529H8a1.443,1.443,0,0,0,.1.529.186.186,0,0,0,.1.191,1.751,1.751,0,0,0,.132.221l7.352,8.823a1.476,1.476,0,0,0,2.6-.809,1.5,1.5,0,0,0-.338-1.073l-5.338-6.411h17.44a1.47,1.47,0,0,0,0-2.941Z" transform="translate(-9.996 31.527) rotate(-90)" fill="#fff"/>
</svg>
