<svg xmlns="http://www.w3.org/2000/svg" width="13.051" height="14.356" viewBox="0 0 13.051 14.356">
  <path id="calendario-proyecto" d="M10.526,13.746a.653.653,0,1,0-.653-.653A.654.654,0,0,0,10.526,13.746Zm3.263,0a.653.653,0,1,0-.653-.653A.654.654,0,0,0,13.788,13.746Zm0-2.61a.653.653,0,1,0-.653-.653A.654.654,0,0,0,13.788,11.136Zm-3.263,0a.653.653,0,1,0-.653-.653A.654.654,0,0,0,10.526,11.136Zm4.568-7.831h-.653V2.653a.653.653,0,1,0-1.305,0v.653H7.915V2.653a.653.653,0,1,0-1.305,0v.653H5.958A1.959,1.959,0,0,0,4,5.263V14.4a1.959,1.959,0,0,0,1.958,1.958h9.136A1.959,1.959,0,0,0,17.051,14.4V5.263A1.959,1.959,0,0,0,15.093,3.305ZM15.746,14.4a.654.654,0,0,1-.653.653H5.958a.654.654,0,0,1-.653-.653V8.526H15.746Zm0-7.178H5.305V5.263a.654.654,0,0,1,.653-.653H6.61v.653a.653.653,0,1,0,1.305,0V4.61h5.22v.653a.653.653,0,1,0,1.305,0V4.61h.653a.654.654,0,0,1,.653.653ZM7.263,11.136a.653.653,0,1,0-.653-.653A.654.654,0,0,0,7.263,11.136Zm0,2.61a.653.653,0,1,0-.653-.653A.654.654,0,0,0,7.263,13.746Z" transform="translate(-4 -2)" fill="#fff"/>
</svg>
