<svg xmlns="http://www.w3.org/2000/svg" width="19.885" height="19.858" viewBox="0 0 28 19.858">
  <g id="chat-notification-off" transform="translate(-3270 3051)">
    <path id="chat-1" d="M13.9,4a9.926,9.926,0,0,0-9.929,9.929,9.8,9.8,0,0,0,2.244,6.285L4.23,22.2a.968.968,0,0,0,.735,1.658H13.9A9.929,9.929,0,1,0,13.9,4Zm0,17.872H7.358l.923-.923a.971.971,0,0,0,0-1.4,7.942,7.942,0,1,1,5.62,2.323Z" transform="translate(3266.056 -3055)" fill=""/>
    <circle id="Elipse_569" data-name="Elipse 569" cx="3.5" cy="3.5" r="3.5" transform="translate(3291 -3051)" fill="#f42eb2"/>
  </g>
</svg>
