<svg xmlns="http://www.w3.org/2000/svg" width="12.658" height="14.065" viewBox="0 0 12.658 14.065">
  <path id="director-proyecto" d="M14.143,10.54a2.281,2.281,0,0,0,.5-1.406,2.314,2.314,0,0,0-4.627,0,2.281,2.281,0,0,0,.5,1.406,3.515,3.515,0,0,0-1.406,1.624.7.7,0,1,0,1.294.549,2.1,2.1,0,0,1,1.927-1.28h0a2.111,2.111,0,0,1,1.934,1.28.7.7,0,0,0,.647.429.735.735,0,0,0,.274-.056.7.7,0,0,0,.373-.921A3.51,3.51,0,0,0,14.143,10.54Zm-1.814-.513h0a.908.908,0,1,1,.907-.9A.907.907,0,0,1,12.329,10.027ZM16.549,4H8.11A2.111,2.111,0,0,0,6,6.11v7.736a2.111,2.111,0,0,0,2.11,2.11H9.931l1.9,1.906a.717.717,0,0,0,.5.2.7.7,0,0,0,.457-.169l2.264-1.941h1.5a2.111,2.111,0,0,0,2.11-2.11V6.11A2.111,2.111,0,0,0,16.549,4Zm.7,9.845a.705.705,0,0,1-.7.7H14.79a.7.7,0,0,0-.457.169l-1.969,1.688-1.646-1.653a.717.717,0,0,0-.5-.2H8.11a.705.705,0,0,1-.7-.7V6.11a.705.705,0,0,1,.7-.7h8.439a.705.705,0,0,1,.7.7Z" transform="translate(-6 -4)" fill=""/>
</svg>
