<svg xmlns="http://www.w3.org/2000/svg" width="37.172" height="37.172" viewBox="0 0 37.172 37.172">
  <g id="editar-perfil" transform="translate(-95.828 -220.828)">
    <path id="Trazado_21305" data-name="Trazado 21305" d="M18.586,0A18.586,18.586,0,1,1,0,18.586,18.586,18.586,0,0,1,18.586,0Z" transform="translate(95.828 220.828)" fill="#f42eb2"/>
    <g id="pen" transform="translate(103.859 222.945)">
      <path id="Trazado_31613" data-name="Trazado 31613" d="M22.195,8.767a.928.928,0,0,0-.264-.646L18.074,4.264a.923.923,0,0,0-1.292,0L14.207,6.838h0L4.264,16.782A.928.928,0,0,0,4,17.428v3.857a.912.912,0,0,0,.91.91H8.767a.907.907,0,0,0,.691-.264l9.889-9.944h0l2.584-2.529a1.117,1.117,0,0,0,.2-.3.877.877,0,0,0,0-.218.6.6,0,0,0,0-.127ZM8.394,20.375H5.819V17.8l9.034-9.034,2.575,2.575ZM18.711,10.059,16.136,7.484,17.428,6.2l2.565,2.565Z" transform="translate(-2.181 3.733)" fill="#fff"/>
      <path id="Trazado_31614" data-name="Trazado 31614" d="M0,0H21.834V21.834H0Z" transform="translate(0 0)" fill="none"/>
    </g>
  </g>
</svg>
