<svg xmlns="http://www.w3.org/2000/svg" width="26.41" height="24" viewBox="0 0 26.41 24">
  <g id="Unión_128" data-name="Unión 128" transform="translate(0 0)" fill="none" stroke-linecap="round">
    <path d="M12.891,23.919a35.476,35.476,0,0,1-6.412-4.776,24.5,24.5,0,0,1-4.432-5.41A13.862,13.862,0,0,1,0,6.723c0-.053,0-.108,0-.164,0-.083,0-.166,0-.248A7.073,7.073,0,0,1,1.231,2.4,5.776,5.776,0,0,1,6.221,0a7.864,7.864,0,0,1,6.984,4.149A7.866,7.866,0,0,1,20.191,0,5.774,5.774,0,0,1,25.18,2.4,7.077,7.077,0,0,1,26.41,6.311c0,.12,0,.239-.006.357,0,.018,0,.037,0,.055A13.673,13.673,0,0,1,24.58,13.34a23.271,23.271,0,0,1-4.058,5.226,36.52,36.52,0,0,1-6.859,5.268l-.138.081a.639.639,0,0,1-.309.084H13.2A.642.642,0,0,1,12.891,23.919Z" stroke="none"/>
    <path d="M 13.20094299316406 22.36454391479492 C 14.19216060638428 21.76727485656738 16.91143417358398 20.02898025512695 19.466552734375 17.50037574768066 C 21.08478164672852 15.89866638183594 22.36305236816406 14.25552558898926 23.26601219177246 12.61632633209229 C 24.35270690917969 10.64452457427979 24.90429878234863 8.663920402526855 24.90550994873047 6.729317188262939 L 24.90331268310547 6.691555976867676 L 24.90500259399414 6.628066062927246 C 24.9073429107666 6.539956092834473 24.9100227355957 6.424285888671875 24.9100227355957 6.310996055603027 C 24.9100227355957 6.028056144714355 24.86397171020508 4.551506042480469 23.95400238037109 3.26490592956543 C 23.12739181518555 2.093715906143188 21.86126327514648 1.499875903129578 20.19077301025391 1.499875903129578 C 17.33080291748047 1.499875903129578 15.39115238189697 3.232146024703979 14.52957248687744 4.853295803070068 L 13.20501232147217 7.345585823059082 L 11.88045215606689 4.853295803070068 C 11.01887226104736 3.232146024703979 9.079771995544434 1.499875903129578 6.221332550048828 1.499875903129578 C 4.551042556762695 1.499875903129578 3.284252405166626 2.093976020812988 2.455612421035767 3.266465902328491 C 1.546072363853455 4.551675796508789 1.500002264976501 6.028085708618164 1.500002264976501 6.310996055603027 C 1.500002264976501 6.383145809173584 1.500582337379456 6.455595970153809 1.502102375030518 6.527745723724365 L 1.502922296524048 6.566865921020508 L 1.501702308654785 6.605966091156006 C 1.500462293624878 6.645936012268066 1.500002264976501 6.685286045074463 1.500002264976501 6.722896099090576 C 1.500002264976501 8.77846622467041 2.120092391967773 10.88262557983398 3.342892408370972 12.97663593292236 C 4.342552185058594 14.6876859664917 5.743252277374268 16.39441680908203 7.505852222442627 18.04921531677246 C 9.896857261657715 20.2930736541748 12.26493358612061 21.80328941345215 13.20094299316406 22.36454391479492 M 13.20119190216064 23.999755859375 C 13.09526252746582 23.999755859375 12.9882926940918 23.9730167388916 12.89104270935059 23.91935539245605 C 12.75976276397705 23.84659576416016 9.642672538757324 22.11161613464355 6.479382514953613 19.14299583435059 C 4.611212253570557 17.38908576965332 3.120222330093384 15.56901550292969 2.047732353210449 13.73331546783447 C 0.6894122958183289 11.40722560882568 2.321472265975899e-06 9.04865550994873 2.321472265975899e-06 6.722896099090576 C 2.321472265975899e-06 6.670286178588867 0.000692321453243494 6.615235805511475 0.00243232143111527 6.559316158294678 C 0.000692321453243494 6.476655960083008 2.321472265975899e-06 6.393655776977539 2.321472265975899e-06 6.310996055603027 C 2.321472265975899e-06 5.801496028900146 0.08891232311725616 4.014065742492676 1.231212377548218 2.399955987930298 C 2.005012273788452 1.305065989494324 3.498782396316528 -0.0001240591373061761 6.221332550048828 -0.0001240591373061761 C 9.756932258605957 -0.0001240591373061761 12.14016246795654 2.145725965499878 13.20501232147217 4.149345874786377 C 14.26986217498779 2.145725965499878 16.65378189086914 -0.0001240591373061761 20.19077301025391 -0.0001240591373061761 C 22.91193199157715 -0.0001240591373061761 24.40675163269043 1.305065989494324 25.17951202392578 2.399955987930298 C 26.32111167907715 4.014065742492676 26.4100227355957 5.801496028900146 26.4100227355957 6.310996055603027 C 26.4100227355957 6.430645942687988 26.4075927734375 6.550285816192627 26.40447235107422 6.667855739593506 C 26.4055118560791 6.685735702514648 26.4055118560791 6.704845905303955 26.4055118560791 6.722896099090576 C 26.4055118560791 8.916505813598633 25.79008293151855 11.14413547515869 24.5797119140625 13.34033584594727 C 23.60620307922363 15.10761547088623 22.23954200744629 16.8662166595459 20.52176284790039 18.56646537780762 C 17.50955200195312 21.54741668701172 14.27993202209473 23.4770565032959 13.66242218017578 23.83426666259766 C 13.57351207733154 23.88670539855957 13.52453231811523 23.91501617431641 13.52453231811523 23.91501617431641 C 13.42868232727051 23.9697151184082 13.32205200195312 23.99767684936523 13.2150821685791 23.99888610839844 C 13.21126270294189 23.99888610839844 13.20571231842041 23.999755859375 13.20119190216064 23.999755859375 Z" stroke="none" fill="#c0bebe"/>
  </g>
</svg>
