<svg xmlns="http://www.w3.org/2000/svg" width="10.934" height="12.027" viewBox="0 0 10.934 12.027">
  <path id="fecha-final-proyecto" d="M9.467,11.84a.547.547,0,1,0-.547-.547A.548.548,0,0,0,9.467,11.84Zm2.733,0a.547.547,0,1,0-.547-.547A.548.548,0,0,0,12.2,11.84Zm0-2.187a.547.547,0,1,0-.547-.547A.548.548,0,0,0,12.2,9.654Zm-2.733,0a.547.547,0,1,0-.547-.547A.548.548,0,0,0,9.467,9.654Zm3.827-6.56h-.547V2.547a.547.547,0,1,0-1.093,0v.547H7.28V2.547a.547.547,0,1,0-1.093,0v.547H5.64A1.641,1.641,0,0,0,4,4.733v7.654a1.641,1.641,0,0,0,1.64,1.64h7.654a1.641,1.641,0,0,0,1.64-1.64V4.733A1.641,1.641,0,0,0,13.294,3.093Zm.547,9.294a.548.548,0,0,1-.547.547H5.64a.548.548,0,0,1-.547-.547V7.467H13.84Zm0-6.014H5.093V4.733a.548.548,0,0,1,.547-.547h.547v.547a.547.547,0,1,0,1.093,0V4.187h4.373v.547a.547.547,0,1,0,1.093,0V4.187h.547a.548.548,0,0,1,.547.547ZM6.733,9.654a.547.547,0,1,0-.547-.547A.548.548,0,0,0,6.733,9.654Zm0,2.187a.547.547,0,1,0-.547-.547A.548.548,0,0,0,6.733,11.84Z" transform="translate(-4 -2)" fill=""/>
</svg>
