<svg xmlns="http://www.w3.org/2000/svg" width="9.318" height="10.25" viewBox="0 0 9.318 10.25">
  <path id="fecha-rosa" d="M8.659,10.387a.466.466,0,1,0-.466-.466A.467.467,0,0,0,8.659,10.387Zm2.33,0a.466.466,0,1,0-.466-.466A.467.467,0,0,0,10.989,10.387Zm0-1.864a.466.466,0,1,0-.466-.466A.467.467,0,0,0,10.989,8.523Zm-2.33,0a.466.466,0,1,0-.466-.466A.467.467,0,0,0,8.659,8.523Zm3.261-5.591h-.466V2.466a.466.466,0,1,0-.932,0v.466H6.8V2.466a.466.466,0,1,0-.932,0v.466H5.4A1.4,1.4,0,0,0,4,4.33v6.523a1.4,1.4,0,0,0,1.4,1.4h6.523a1.4,1.4,0,0,0,1.4-1.4V4.33A1.4,1.4,0,0,0,11.921,2.932Zm.466,7.921a.467.467,0,0,1-.466.466H5.4a.467.467,0,0,1-.466-.466V6.659h7.455Zm0-5.125H4.932V4.33A.467.467,0,0,1,5.4,3.864h.466V4.33a.466.466,0,1,0,.932,0V3.864h3.727V4.33a.466.466,0,1,0,.932,0V3.864h.466a.467.467,0,0,1,.466.466ZM6.33,8.523a.466.466,0,1,0-.466-.466A.467.467,0,0,0,6.33,8.523Zm0,1.864a.466.466,0,1,0-.466-.466A.467.467,0,0,0,6.33,10.387Z" transform="translate(-4 -2)" fill="#f42eb2"/>
</svg>
