<svg id="file_alt" data-name="file alt" xmlns="http://www.w3.org/2000/svg" width="19.149" height="19.149" viewBox="0 0 19.149 19.149">
  <path id="Trazado_46796" data-name="Trazado 46796" d="M11.989,10.383h.8a.8.8,0,0,0,0-1.6h-.8a.8.8,0,0,0,0,1.6Zm0,1.6a.8.8,0,0,0,0,1.6h4.787a.8.8,0,0,0,0-1.6Zm8.777-2.442a1.045,1.045,0,0,0-.048-.215V9.25a.85.85,0,0,0-.152-.223h0L15.779,4.239h0a.85.85,0,0,0-.223-.152.217.217,0,0,0-.072,0A.686.686,0,0,0,15.221,4H10.394A2.4,2.4,0,0,0,8,6.394v11.17a2.4,2.4,0,0,0,2.394,2.394h7.979a2.4,2.4,0,0,0,2.394-2.394V9.537ZM15.979,6.721l2.067,2.067H16.777a.8.8,0,0,1-.8-.8ZM19.17,17.564a.8.8,0,0,1-.8.8H10.394a.8.8,0,0,1-.8-.8V6.394a.8.8,0,0,1,.8-.8h3.989V7.989a2.4,2.4,0,0,0,2.394,2.394H19.17ZM16.777,15.17H11.989a.8.8,0,0,0,0,1.6h4.787a.8.8,0,0,0,0-1.6Z" transform="translate(-4.808 -2.404)" fill="#f42eb2"/>
  <path id="Trazado_46797" data-name="Trazado 46797" d="M0,0H19.149V19.149H0Z" fill="none"/>
</svg>
