<svg id="file_search_alt" data-name="file search alt" xmlns="http://www.w3.org/2000/svg" width="19.243" height="19.243" viewBox="0 0 19.243 19.243">
  <path id="Trazado_46800" data-name="Trazado 46800" d="M12.018,18.432H6.405a.8.8,0,0,1-.8-.8V6.405a.8.8,0,0,1,.8-.8h4.009V8.009a2.407,2.407,0,0,0,2.405,2.405h2.405v.8a.8.8,0,0,0,1.6,0V9.564a1.05,1.05,0,0,0-.048-.216V9.276a.854.854,0,0,0-.152-.225h0L11.818,4.241h0a.854.854,0,0,0-.225-.152.218.218,0,0,0-.072,0A.689.689,0,0,0,11.256,4H6.405A2.407,2.407,0,0,0,4,6.405V17.631a2.407,2.407,0,0,0,2.405,2.405h5.613a.8.8,0,1,0,0-1.6Zm0-11.7,2.077,2.077H12.82a.8.8,0,0,1-.8-.8ZM8.009,8.811a.8.8,0,1,0,0,1.6h.8a.8.8,0,0,0,0-1.6ZM19.8,18.665l-.938-.93a2.754,2.754,0,0,0-.433-3.311h0a2.824,2.824,0,1,0-.7,4.442l.93.938A.805.805,0,1,0,19.8,18.665Zm-2.542-1.4a1.231,1.231,0,0,1-1.692,0,1.2,1.2,0,0,1-.345-.842,1.169,1.169,0,0,1,.353-.85,1.182,1.182,0,0,1,.8-.345,1.18,1.18,0,0,1,1.251,1.195A1.216,1.216,0,0,1,17.262,17.262ZM12.82,12.018H8.009a.8.8,0,1,0,0,1.6H12.82a.8.8,0,0,0,0-1.6Zm-1.6,4.811a.8.8,0,0,0,0-1.6H8.009a.8.8,0,0,0,0,1.6Z" transform="translate(-2.396 -2.396)" fill="#f42eb2"/>
  <path id="Trazado_46801" data-name="Trazado 46801" d="M0,0H19.243V19.243H0Z" fill="none"/>
</svg>
