<svg xmlns="http://www.w3.org/2000/svg" width="23.908" height="23.908" viewBox="0 0 23.908 23.908">
  <g id="filtros" transform="translate(23.908) rotate(90)">
    <path id="Trazado_21683" data-name="Trazado 21683" d="M15.969,9.992V8m0,1.992a1.992,1.992,0,1,0,0,3.985m0-3.985a1.992,1.992,0,0,1,0,3.985M9.992,21.946a1.992,1.992,0,0,0,0-3.985m0,3.985a1.992,1.992,0,0,1,0-3.985m0,3.985v1.992m0-5.977V8m5.977,5.977v9.962m5.977-1.992a1.992,1.992,0,0,0,0-3.985m0,3.985a1.992,1.992,0,1,1,0-3.985m0,3.985v1.992m0-5.977V8" transform="translate(-4.015 -4.015)" fill="#FFFFFF" stroke="#FFFFFF" stroke-linecap="round" stroke-linejoin="round" stroke-width="1.1"/>
    <path id="Trazado_21684" data-name="Trazado 21684" d="M0,0H23.908V23.908H0Z" fill="none"/>
  </g>
</svg>
