<svg xmlns="http://www.w3.org/2000/svg" width="26.41" height="24" viewBox="0 0 26.41 24">
  <path id="Unión_118" data-name="Unión 118" d="M12.891,23.919a35.476,35.476,0,0,1-6.412-4.776,24.5,24.5,0,0,1-4.432-5.41A13.862,13.862,0,0,1,0,6.723c0-.053,0-.108,0-.164,0-.083,0-.166,0-.248A7.073,7.073,0,0,1,1.231,2.4,5.776,5.776,0,0,1,6.221,0a7.864,7.864,0,0,1,6.984,4.149A7.866,7.866,0,0,1,20.191,0,5.774,5.774,0,0,1,25.18,2.4,7.077,7.077,0,0,1,26.41,6.311c0,.12,0,.239-.006.357,0,.018,0,.037,0,.055A13.673,13.673,0,0,1,24.58,13.34a23.271,23.271,0,0,1-4.058,5.226,36.52,36.52,0,0,1-6.859,5.268l-.138.081a.639.639,0,0,1-.309.084H13.2A.642.642,0,0,1,12.891,23.919Z" transform="translate(0 0)" fill="#f42eb2"/>
</svg>
