<svg xmlns="http://www.w3.org/2000/svg" width="16.441" height="18.291" viewBox="0 0 16.441 18.291">
  <path id="home" d="M21.528,9.453h0l-5.48-4.8a2.737,2.737,0,0,0-3.654,0l-5.48,4.8A2.742,2.742,0,0,0,6,11.517V19.5a2.742,2.742,0,0,0,2.74,2.74H19.7a2.742,2.742,0,0,0,2.74-2.74V11.508A2.731,2.731,0,0,0,21.528,9.453Zm-5.48,10.961H12.394V15.847a.916.916,0,0,1,.913-.913h1.827a.916.916,0,0,1,.913.913Zm4.567-.913a.916.916,0,0,1-.913.913H17.874V15.847a2.742,2.742,0,0,0-2.74-2.74H13.307a2.742,2.742,0,0,0-2.74,2.74v4.567H8.74a.916.916,0,0,1-.913-.913V11.508a.919.919,0,0,1,.311-.685l5.48-4.8a.917.917,0,0,1,1.206,0l5.48,4.8a.919.919,0,0,1,.311.685Z" transform="translate(-6 -3.95)" />
</svg>
