<svg xmlns="http://www.w3.org/2000/svg" width="44" height="44" viewBox="0 0 44 44">
  <g id="idiomas" transform="translate(-21 -662)">
    <circle id="Elipse_520" data-name="Elipse 520" cx="22" cy="22" r="22" transform="translate(21 662)" fill="#f42eb2"/>
    <path id="Trazado_37635" data-name="Trazado 37635" d="M25.189,14.6h-2.12a1.06,1.06,0,1,0,0,2.12v2.12H21.813a3.171,3.171,0,0,0-5.735-2.65,1.059,1.059,0,1,0,1.834,1.06,1.06,1.06,0,1,1,.917,1.59,1.06,1.06,0,1,0,0,2.12,1.06,1.06,0,1,1-.917,1.59,1.059,1.059,0,1,0-1.834,1.06,3.168,3.168,0,0,0,5.735-2.65h1.256v3.18a1.06,1.06,0,0,0,2.12,0V16.72a1.06,1.06,0,1,0,0-2.12ZM12.5,13.8a1.06,1.06,0,1,0,2.056-.519L12.7,5.834a2.417,2.417,0,0,0-4.69,0L6.141,13.28A1.06,1.06,0,0,0,8.2,13.8l.594-2.38h3.116ZM9.321,9.3l.742-2.952a.3.3,0,0,1,.286-.2.315.315,0,0,1,.291.2L11.378,9.3Zm8.448,0h1.06a1.06,1.06,0,0,1,1.06,1.06v1.06a1.06,1.06,0,1,0,2.12,0V10.36a3.182,3.182,0,0,0-3.18-3.18h-1.06a1.06,1.06,0,0,0,0,2.12Zm-4.24,9.54h-1.06a1.063,1.063,0,0,1-1.06-1.06V16.72a1.06,1.06,0,0,0-2.12,0v1.06a3.182,3.182,0,0,0,3.18,3.18h1.06a1.06,1.06,0,1,0,0-2.12Z" transform="translate(26.891 669)" fill="#fff"/>
  </g>
</svg>
