<svg xmlns="http://www.w3.org/2000/svg" width="35" height="35" viewBox="0 0 35 35">
  <g id="info" transform="translate(-379 -73)">
    <path id="Trazado_31610" data-name="Trazado 31610" d="M17.5,0A17.5,17.5,0,1,1,0,17.5,17.5,17.5,0,0,1,17.5,0Z" transform="translate(379 73)" fill="#26262c"/>
    <path id="Trazado_37648" data-name="Trazado 37648" d="M26.92,17.032a5.036,5.036,0,0,0-9.4-2.516,1.44,1.44,0,0,0,2.494,1.438,2.157,2.157,0,1,1,1.869,3.235h-.007a1.154,1.154,0,0,0-.273.058,1.36,1.36,0,0,0-.288.058,1.519,1.519,0,0,0-.223.151,1.193,1.193,0,0,0-.23.158,1.171,1.171,0,0,0-.165.252,1.287,1.287,0,0,0-.144.2,1.468,1.468,0,0,0-.058.309.977.977,0,0,0-.05.252v2.157a1.437,1.437,0,0,0,1.438,1.438H21.9a1.436,1.436,0,0,0,1.43-1.438v-.956A5.038,5.038,0,0,0,26.92,17.032Zm-6.045,9.762a1.44,1.44,0,0,0-.316,1.567,1.423,1.423,0,0,0,1.323.891A1.438,1.438,0,0,0,22.9,26.794,1.487,1.487,0,0,0,20.875,26.794Z" transform="translate(374.514 69.925)" fill="#fff"/>
  </g>
</svg>
