<svg xmlns="http://www.w3.org/2000/svg" xmlns:xlink="http://www.w3.org/1999/xlink" width="44" height="44" viewBox="0 0 44 44">
  <defs>
    <linearGradient id="linear-gradient" x1="0.119" y1="0.881" x2="0.83" y2="0.17" gradientUnits="objectBoundingBox">
      <stop offset="0" stop-color="#fee411"/>
      <stop offset="0.052" stop-color="#fedb16"/>
      <stop offset="0.138" stop-color="#fec125"/>
      <stop offset="0.248" stop-color="#fe983d"/>
      <stop offset="0.376" stop-color="#fe5f5e"/>
      <stop offset="0.5" stop-color="#fe2181"/>
      <stop offset="1" stop-color="#9000dc"/>
    </linearGradient>
  </defs>
  <g id="instagram" transform="translate(-31.421 -32.319)">
    <circle id="Elipse_528" data-name="Elipse 528" cx="22" cy="22" r="22" transform="translate(31.421 32.319)" fill="url(#linear-gradient)"/>
    <g id="Grupo_11065" data-name="Grupo 11065" transform="translate(41.567 41.34)">
      <path id="Trazado_37638" data-name="Trazado 37638" d="M148.261,131h-9.49a7.676,7.676,0,0,0-7.671,7.671v9.49a7.676,7.676,0,0,0,7.671,7.671h9.49a7.676,7.676,0,0,0,7.671-7.671v-9.49A7.676,7.676,0,0,0,148.261,131Zm4.9,17.171a4.913,4.913,0,0,1-4.909,4.909h-9.49a4.913,4.913,0,0,1-4.909-4.909v-9.49a4.913,4.913,0,0,1,4.909-4.909h9.49a4.913,4.913,0,0,1,4.909,4.909Z" transform="translate(-131.1 -131)" fill="#fff"/>
      <path id="Trazado_37639" data-name="Trazado 37639" d="M198.45,192.1a6.35,6.35,0,1,0,6.35,6.35A6.361,6.361,0,0,0,198.45,192.1Zm0,10.205a3.856,3.856,0,1,1,3.856-3.856A3.859,3.859,0,0,1,198.45,202.305Z" transform="translate(-186.038 -186.029)" fill="#fff"/>
      <circle id="Elipse_529" data-name="Elipse 529" cx="1.073" cy="1.073" r="1.073" transform="matrix(0.987, -0.16, 0.16, 0.987, 17.842, 4.821)" fill="#fff"/>
    </g>
  </g>
</svg>
