<svg id="location_point" data-name="location point" xmlns="http://www.w3.org/2000/svg" width="13.318" height="13.318" viewBox="0 0 13.318 13.318">
  <path id="Trazado_29357" data-name="Trazado 29357" d="M15.066,5.367a4.709,4.709,0,0,0-6.659,6.659l2.924,2.93a.556.556,0,0,0,.788,0L15.066,12A4.689,4.689,0,0,0,15.066,5.367Zm-.794,5.838-2.536,2.547L9.2,11.205a3.585,3.585,0,1,1,5.072,0Zm-4.2-4.212a2.393,2.393,0,1,0,4.084,1.72,2.35,2.35,0,0,0-.7-1.693,2.385,2.385,0,0,0-3.385-.028Zm2.6,2.6a.535.535,0,1,0-.028,0Z" transform="translate(-5.078 -2.881)" fill="white"/>
  <path id="Trazado_29358" data-name="Trazado 29358" d="M0,0H13.318V13.318H0Z" fill="none"/>
</svg>
