<svg xmlns="http://www.w3.org/2000/svg" xmlns:xlink="http://www.w3.org/1999/xlink" width="88.251" height="40" viewBox="0 0 88.251 40">
  <defs>
    <filter id="Trazado_21532" x="0" y="0" width="40" height="40" filterUnits="userSpaceOnUse">
      <feOffset dy="4" input="SourceAlpha"/>
      <feGaussianBlur stdDeviation="1" result="blur"/>
      <feFlood flood-color="#bb0888" flood-opacity="0.8" result="color"/>
      <feComposite operator="out" in="SourceGraphic" in2="blur"/>
      <feComposite operator="in" in="color"/>
      <feComposite operator="in" in2="SourceGraphic"/>
    </filter>
    <filter id="Unión_91" x="48.25" y="6" width="40.001" height="28.001" filterUnits="userSpaceOnUse">
      <feOffset dy="2" input="SourceAlpha"/>
      <feGaussianBlur stdDeviation="2" result="blur-2"/>
      <feFlood flood-color="#bb0888" flood-opacity="0.8" result="color-2"/>
      <feComposite operator="out" in="SourceGraphic" in2="blur-2"/>
      <feComposite operator="in" in="color-2"/>
      <feComposite operator="in" in2="SourceGraphic"/>
    </filter>
  </defs>
  <g id="logotipo-3" transform="translate(-16 -80)">
    <g data-type="innerShadowGroup">
      <path id="Trazado_21532-2" data-name="Trazado 21532" d="M60,39A20,20,0,1,0,80,59,20.017,20.017,0,0,0,60,39Zm3.1,28.263H56.9V50.737h6.2Z" transform="translate(-24 41)" fill="#ed07ac"/>
      <g transform="matrix(1, 0, 0, 1, 16, 80)" filter="url(#Trazado_21532)">
        <path id="Trazado_21532-3" data-name="Trazado 21532" d="M60,39A20,20,0,1,0,80,59,20.017,20.017,0,0,0,60,39Zm3.1,28.263H56.9V50.737h6.2Z" transform="translate(-40 -39)" fill="#fff"/>
      </g>
    </g>
    <g data-type="innerShadowGroup">
      <path id="Unión_91-2" data-name="Unión 91" d="M31.039,27.553a5.9,5.9,0,0,1-2.088-1.416,6.911,6.911,0,0,1-1.446-2.5,11.511,11.511,0,0,1-.522-3.69,10.854,10.854,0,0,1,.522-3.54,7.293,7.293,0,0,1,1.446-2.523,5.988,5.988,0,0,1,2.088-1.511,6.185,6.185,0,0,1,2.465-.506,6.1,6.1,0,0,1,2.453.506,5.843,5.843,0,0,1,2.088,1.511,7.121,7.121,0,0,1,1.432,2.523A10.815,10.815,0,0,1,40,19.945a11.47,11.47,0,0,1-.523,3.69,6.756,6.756,0,0,1-1.432,2.5,5.759,5.759,0,0,1-2.088,1.416A6.778,6.778,0,0,1,33.5,28,6.874,6.874,0,0,1,31.039,27.553Zm.935-11.995a3.813,3.813,0,0,0-1,1.7,9.006,9.006,0,0,0-.352,2.69,9.311,9.311,0,0,0,.352,2.783,3.481,3.481,0,0,0,1,1.64,2.329,2.329,0,0,0,1.53.53,2.284,2.284,0,0,0,1.518-.53,3.4,3.4,0,0,0,.983-1.64,9.327,9.327,0,0,0,.354-2.783,8.956,8.956,0,0,0-.354-2.69,3.721,3.721,0,0,0-.983-1.7,2.146,2.146,0,0,0-1.518-.59A2.187,2.187,0,0,0,31.974,15.558ZM16.419,27.339a5.423,5.423,0,0,1-2.162-1.922,5.494,5.494,0,0,1-.8-3.008,7.3,7.3,0,0,1,.644-3.242A11.5,11.5,0,0,1,15.57,16.89l3.983-4.741H23.8l-4.942,5.614a1.308,1.308,0,0,1,.509-.283,2.909,2.909,0,0,1,.96-.13,5.014,5.014,0,0,1,2.416.624,5.081,5.081,0,0,1,1.906,1.793,5.023,5.023,0,0,1,.741,2.772,5.037,5.037,0,0,1-.8,2.819,5.628,5.628,0,0,1-2.162,1.934A6.321,6.321,0,0,1,19.444,28,6.822,6.822,0,0,1,16.419,27.339ZM18.145,20.5a2.576,2.576,0,0,0-.935.9,2.323,2.323,0,0,0-.34,1.239,2.447,2.447,0,0,0,.34,1.262,2.583,2.583,0,0,0,2.221,1.227,2.544,2.544,0,0,0,2.2-1.227,2.4,2.4,0,0,0,.352-1.262A2.273,2.273,0,0,0,21.63,21.4a2.544,2.544,0,0,0-2.2-1.227A2.572,2.572,0,0,0,18.145,20.5ZM2.951,27.387a6,6,0,0,1-1.978-1.5A4.958,4.958,0,0,1,0,24.179l3.328-1.6a4.272,4.272,0,0,0,.486,1.061,3.34,3.34,0,0,0,.9.944,2.171,2.171,0,0,0,1.262.377,2.627,2.627,0,0,0,1.263-.283,2.015,2.015,0,0,0,.8-.767,2.2,2.2,0,0,0,.29-1.132A1.778,1.778,0,0,0,8,21.678a1.876,1.876,0,0,0-.851-.648,3.143,3.143,0,0,0-1.178-.213H5.659V18.294h.413a2.328,2.328,0,0,0,1.009-.213,1.789,1.789,0,0,0,.449-2.854,2.038,2.038,0,0,0-1.518-.53,2.527,2.527,0,0,0-1.069.212,2.345,2.345,0,0,0-.753.519,2.883,2.883,0,0,0-.485.636,2.136,2.136,0,0,0-.219.555L.546,15.262A3.971,3.971,0,0,1,1.069,14.2a4.865,4.865,0,0,1,1.056-1.12,5.8,5.8,0,0,1,1.651-.873,6.915,6.915,0,0,1,2.272-.342,6.31,6.31,0,0,1,2.708.553,4.473,4.473,0,0,1,1.869,1.523,3.9,3.9,0,0,1,.681,2.288,3.549,3.549,0,0,1-.292,1.45,3.369,3.369,0,0,1-.753,1.086,2.212,2.212,0,0,1-.971.565,2.43,2.43,0,0,1,1.19.531A3.707,3.707,0,0,1,11.5,21.089a3.653,3.653,0,0,1,.426,1.8,4.63,4.63,0,0,1-.778,2.643,5.264,5.264,0,0,1-2.1,1.8A6.807,6.807,0,0,1,5.987,28,6.853,6.853,0,0,1,2.951,27.387Zm30.663-19.7A2.691,2.691,0,0,1,32.5,6.594a3.451,3.451,0,0,1-.383-1.669V.142h1.81V4.83a2.11,2.11,0,0,0,.17.9,1.248,1.248,0,0,0,.5.553,1.5,1.5,0,0,0,.759.184A1.462,1.462,0,0,0,36.1,6.28a1.23,1.23,0,0,0,.485-.553,2.063,2.063,0,0,0,.176-.9V.142h1.816V4.925a3.414,3.414,0,0,1-.39,1.669,2.7,2.7,0,0,1-1.111,1.091,3.623,3.623,0,0,1-1.724.383A3.675,3.675,0,0,1,33.614,7.684Zm-16.207.2a5.534,5.534,0,0,1-1.049-.4,3.364,3.364,0,0,1-.481-.284l.905-1.48c.049.035.141.092.28.17a5.5,5.5,0,0,0,.515.249,5.122,5.122,0,0,0,.644.212,2.732,2.732,0,0,0,.681.089,1.4,1.4,0,0,0,.837-.206.666.666,0,0,0,.28-.555.674.674,0,0,0-.176-.454,1.759,1.759,0,0,0-.528-.377,8.547,8.547,0,0,0-.881-.383,5.649,5.649,0,0,1-.99-.5,2.477,2.477,0,0,1-.741-.737,1.987,1.987,0,0,1-.284-1.1A1.769,1.769,0,0,1,16.794,1a2.444,2.444,0,0,1,1-.743A3.451,3.451,0,0,1,19.132,0a4.833,4.833,0,0,1,2.2.5,3.718,3.718,0,0,1,.413.235l-.875,1.422a3.781,3.781,0,0,0-.334-.207,2.848,2.848,0,0,0-.552-.241,2.051,2.051,0,0,0-.662-.107,1.528,1.528,0,0,0-.759.166.515.515,0,0,0-.286.478.6.6,0,0,0,.153.4,1.668,1.668,0,0,0,.474.33c.215.1.485.215.814.336a5.741,5.741,0,0,1,.843.377,2.978,2.978,0,0,1,.693.519,2.245,2.245,0,0,1,.479.684,2.13,2.13,0,0,1,.176.885,2.037,2.037,0,0,1-.249,1.025,2.113,2.113,0,0,1-.681.713,3.041,3.041,0,0,1-.97.419,4.406,4.406,0,0,1-1.123.142A5.559,5.559,0,0,1,17.406,7.886Zm10.283.04V1.687H25.775V.142H31.41V1.687H29.5V7.925Zm-4.617,0V.142h1.816V7.925Zm-13.932,0-3.1-5.914V7.925H4.223V.142H6.7l3.114,5.88V.142H11.63V7.925Zm-7.874,0V.142H3.083V7.925Z" transform="translate(64.25 86)" fill="#ed07ac"/>
      <g transform="matrix(1, 0, 0, 1, 16, 80)" filter="url(#Unión_91)">
        <path id="Unión_91-3" data-name="Unión 91" d="M31.039,27.553a5.9,5.9,0,0,1-2.088-1.416,6.911,6.911,0,0,1-1.446-2.5,11.511,11.511,0,0,1-.522-3.69,10.854,10.854,0,0,1,.522-3.54,7.293,7.293,0,0,1,1.446-2.523,5.988,5.988,0,0,1,2.088-1.511,6.185,6.185,0,0,1,2.465-.506,6.1,6.1,0,0,1,2.453.506,5.843,5.843,0,0,1,2.088,1.511,7.121,7.121,0,0,1,1.432,2.523A10.815,10.815,0,0,1,40,19.945a11.47,11.47,0,0,1-.523,3.69,6.756,6.756,0,0,1-1.432,2.5,5.759,5.759,0,0,1-2.088,1.416A6.778,6.778,0,0,1,33.5,28,6.874,6.874,0,0,1,31.039,27.553Zm.935-11.995a3.813,3.813,0,0,0-1,1.7,9.006,9.006,0,0,0-.352,2.69,9.311,9.311,0,0,0,.352,2.783,3.481,3.481,0,0,0,1,1.64,2.329,2.329,0,0,0,1.53.53,2.284,2.284,0,0,0,1.518-.53,3.4,3.4,0,0,0,.983-1.64,9.327,9.327,0,0,0,.354-2.783,8.956,8.956,0,0,0-.354-2.69,3.721,3.721,0,0,0-.983-1.7,2.146,2.146,0,0,0-1.518-.59A2.187,2.187,0,0,0,31.974,15.558ZM16.419,27.339a5.423,5.423,0,0,1-2.162-1.922,5.494,5.494,0,0,1-.8-3.008,7.3,7.3,0,0,1,.644-3.242A11.5,11.5,0,0,1,15.57,16.89l3.983-4.741H23.8l-4.942,5.614a1.308,1.308,0,0,1,.509-.283,2.909,2.909,0,0,1,.96-.13,5.014,5.014,0,0,1,2.416.624,5.081,5.081,0,0,1,1.906,1.793,5.023,5.023,0,0,1,.741,2.772,5.037,5.037,0,0,1-.8,2.819,5.628,5.628,0,0,1-2.162,1.934A6.321,6.321,0,0,1,19.444,28,6.822,6.822,0,0,1,16.419,27.339ZM18.145,20.5a2.576,2.576,0,0,0-.935.9,2.323,2.323,0,0,0-.34,1.239,2.447,2.447,0,0,0,.34,1.262,2.583,2.583,0,0,0,2.221,1.227,2.544,2.544,0,0,0,2.2-1.227,2.4,2.4,0,0,0,.352-1.262A2.273,2.273,0,0,0,21.63,21.4a2.544,2.544,0,0,0-2.2-1.227A2.572,2.572,0,0,0,18.145,20.5ZM2.951,27.387a6,6,0,0,1-1.978-1.5A4.958,4.958,0,0,1,0,24.179l3.328-1.6a4.272,4.272,0,0,0,.486,1.061,3.34,3.34,0,0,0,.9.944,2.171,2.171,0,0,0,1.262.377,2.627,2.627,0,0,0,1.263-.283,2.015,2.015,0,0,0,.8-.767,2.2,2.2,0,0,0,.29-1.132A1.778,1.778,0,0,0,8,21.678a1.876,1.876,0,0,0-.851-.648,3.143,3.143,0,0,0-1.178-.213H5.659V18.294h.413a2.328,2.328,0,0,0,1.009-.213,1.789,1.789,0,0,0,.449-2.854,2.038,2.038,0,0,0-1.518-.53,2.527,2.527,0,0,0-1.069.212,2.345,2.345,0,0,0-.753.519,2.883,2.883,0,0,0-.485.636,2.136,2.136,0,0,0-.219.555L.546,15.262A3.971,3.971,0,0,1,1.069,14.2a4.865,4.865,0,0,1,1.056-1.12,5.8,5.8,0,0,1,1.651-.873,6.915,6.915,0,0,1,2.272-.342,6.31,6.31,0,0,1,2.708.553,4.473,4.473,0,0,1,1.869,1.523,3.9,3.9,0,0,1,.681,2.288,3.549,3.549,0,0,1-.292,1.45,3.369,3.369,0,0,1-.753,1.086,2.212,2.212,0,0,1-.971.565,2.43,2.43,0,0,1,1.19.531A3.707,3.707,0,0,1,11.5,21.089a3.653,3.653,0,0,1,.426,1.8,4.63,4.63,0,0,1-.778,2.643,5.264,5.264,0,0,1-2.1,1.8A6.807,6.807,0,0,1,5.987,28,6.853,6.853,0,0,1,2.951,27.387Zm30.663-19.7A2.691,2.691,0,0,1,32.5,6.594a3.451,3.451,0,0,1-.383-1.669V.142h1.81V4.83a2.11,2.11,0,0,0,.17.9,1.248,1.248,0,0,0,.5.553,1.5,1.5,0,0,0,.759.184A1.462,1.462,0,0,0,36.1,6.28a1.23,1.23,0,0,0,.485-.553,2.063,2.063,0,0,0,.176-.9V.142h1.816V4.925a3.414,3.414,0,0,1-.39,1.669,2.7,2.7,0,0,1-1.111,1.091,3.623,3.623,0,0,1-1.724.383A3.675,3.675,0,0,1,33.614,7.684Zm-16.207.2a5.534,5.534,0,0,1-1.049-.4,3.364,3.364,0,0,1-.481-.284l.905-1.48c.049.035.141.092.28.17a5.5,5.5,0,0,0,.515.249,5.122,5.122,0,0,0,.644.212,2.732,2.732,0,0,0,.681.089,1.4,1.4,0,0,0,.837-.206.666.666,0,0,0,.28-.555.674.674,0,0,0-.176-.454,1.759,1.759,0,0,0-.528-.377,8.547,8.547,0,0,0-.881-.383,5.649,5.649,0,0,1-.99-.5,2.477,2.477,0,0,1-.741-.737,1.987,1.987,0,0,1-.284-1.1A1.769,1.769,0,0,1,16.794,1a2.444,2.444,0,0,1,1-.743A3.451,3.451,0,0,1,19.132,0a4.833,4.833,0,0,1,2.2.5,3.718,3.718,0,0,1,.413.235l-.875,1.422a3.781,3.781,0,0,0-.334-.207,2.848,2.848,0,0,0-.552-.241,2.051,2.051,0,0,0-.662-.107,1.528,1.528,0,0,0-.759.166.515.515,0,0,0-.286.478.6.6,0,0,0,.153.4,1.668,1.668,0,0,0,.474.33c.215.1.485.215.814.336a5.741,5.741,0,0,1,.843.377,2.978,2.978,0,0,1,.693.519,2.245,2.245,0,0,1,.479.684,2.13,2.13,0,0,1,.176.885,2.037,2.037,0,0,1-.249,1.025,2.113,2.113,0,0,1-.681.713,3.041,3.041,0,0,1-.97.419,4.406,4.406,0,0,1-1.123.142A5.559,5.559,0,0,1,17.406,7.886Zm10.283.04V1.687H25.775V.142H31.41V1.687H29.5V7.925Zm-4.617,0V.142h1.816V7.925Zm-13.932,0-3.1-5.914V7.925H4.223V.142H6.7l3.114,5.88V.142H11.63V7.925Zm-7.874,0V.142H3.083V7.925Z" transform="translate(48.25 6)" fill="#fff"/>
      </g>
    </g>
  </g>
</svg>
