<svg xmlns="http://www.w3.org/2000/svg" width="12.658" height="12.025" viewBox="0 0 12.658 12.025">
  <path id="nombre-proyecto" d="M14.759,6.9H10.785l-.2-.633A1.9,1.9,0,0,0,8.785,5H5.9A1.9,1.9,0,0,0,4,6.9v8.228a1.9,1.9,0,0,0,1.9,1.9h8.86a1.9,1.9,0,0,0,1.9-1.9V8.8A1.9,1.9,0,0,0,14.759,6.9Zm.633,8.228a.635.635,0,0,1-.633.633H5.9a.635.635,0,0,1-.633-.633V6.9A.635.635,0,0,1,5.9,6.266H8.785a.637.637,0,0,1,.6.43l.342,1.038a.637.637,0,0,0,.6.43h4.43a.635.635,0,0,1,.633.633Z" transform="translate(-4 -5)" fill=""/>
</svg>
