<svg xmlns="http://www.w3.org/2000/svg" width="11.456" height="8.72" viewBox="0 0 11.456 8.72">
  <g id="ordenar" transform="translate(-5448.995 -1213.01)">
    <path id="Trazado_31636" data-name="Trazado 31636" d="M8.679,2.52a.563.563,0,0,0-.114-.18L6.384.159A.547.547,0,1,0,5.61.934L6.864,2.182H.545a.545.545,0,0,0,0,1.09H6.864L5.61,4.521a.547.547,0,1,0,.774.774L8.564,3.114a.563.563,0,0,0,.114-.18A.545.545,0,0,0,8.679,2.52Z" transform="translate(5448.995 1221.73) rotate(-90)" fill="#262626"/>
    <path id="Trazado_31637" data-name="Trazado 31637" d="M8.679,2.52a.563.563,0,0,0-.114-.18L6.384.159A.547.547,0,1,0,5.61.934L6.864,2.182H.545a.545.545,0,0,0,0,1.09H6.864L5.61,4.521a.547.547,0,1,0,.774.774L8.564,3.114a.563.563,0,0,0,.114-.18A.545.545,0,0,0,8.679,2.52Z" transform="translate(5460.451 1213.01) rotate(90)" fill="#262626"/>
  </g>
</svg>
