<svg xmlns="http://www.w3.org/2000/svg" width="10.236" height="7.921" viewBox="0 0 10.236 7.921">
  <path id="participantes-rosa" d="M7.265,11.063A2.291,2.291,0,0,0,8.057,9.33a2.33,2.33,0,1,0-4.659,0,2.291,2.291,0,0,0,.792,1.733A3.728,3.728,0,0,0,2,14.455a.466.466,0,1,0,.932,0,2.8,2.8,0,1,1,5.591,0,.466.466,0,1,0,.932,0A3.728,3.728,0,0,0,7.265,11.063Zm-1.538-.335a1.4,1.4,0,1,1,1.4-1.4A1.4,1.4,0,0,1,5.727,10.727Zm4.538.149A2.33,2.33,0,0,0,8.523,7a.466.466,0,0,0,0,.932,1.4,1.4,0,0,1,.7,2.6.468.468,0,0,0-.233.391.463.463,0,0,0,.21.4l.182.121.061.033A3.262,3.262,0,0,1,11.3,14.455a.466.466,0,1,0,.932,0A4.2,4.2,0,0,0,10.265,10.876Z" transform="translate(-2 -7)" fill="#f42eb2"/>
</svg>
