<svg xmlns="http://www.w3.org/2000/svg" width="14.313" height="11.075" viewBox="0 0 14.313 11.075">
  <path id="participantes" d="M9.361,12.681a3.2,3.2,0,0,0,1.107-2.423,3.257,3.257,0,1,0-6.515,0,3.2,3.2,0,0,0,1.107,2.423A5.212,5.212,0,0,0,2,17.423a.651.651,0,1,0,1.3,0,3.909,3.909,0,1,1,7.817,0,.651.651,0,1,0,1.3,0A5.212,5.212,0,0,0,9.361,12.681Zm-2.15-.469a1.954,1.954,0,1,1,1.954-1.954A1.956,1.956,0,0,1,7.212,12.212Zm6.345.208A3.258,3.258,0,0,0,11.12,7a.651.651,0,0,0,0,1.3,1.951,1.951,0,0,1,.977,3.642.654.654,0,0,0-.326.547.647.647,0,0,0,.293.56l.254.169.085.046a4.561,4.561,0,0,1,2.606,4.156.651.651,0,1,0,1.3,0A5.868,5.868,0,0,0,13.557,12.42Z" transform="translate(-2 -7)" fill="#fff"/>
</svg>
