<svg xmlns="http://www.w3.org/2000/svg" width="19.841" height="19.858" viewBox="0 0 19.841 19.858">
  <path id="perfil" d="M13.958,4A9.939,9.939,0,0,0,6.653,20.658h0a9.938,9.938,0,0,0,14.61,0h0A9.939,9.939,0,0,0,13.958,4Zm0,17.89a7.965,7.965,0,0,1-5.516-2.236,5.964,5.964,0,0,1,11.032,0A7.965,7.965,0,0,1,13.958,21.89ZM11.97,11.951a1.988,1.988,0,1,1,1.988,1.988A1.987,1.987,0,0,1,11.97,11.951Zm8.856,5.963a7.965,7.965,0,0,0-3.886-3.359,3.977,3.977,0,1,0-5.963,0A7.965,7.965,0,0,0,7.09,17.915a7.951,7.951,0,1,1,13.736,0Z" transform="translate(-4.037 -4)" />
</svg>
