
<svg xmlns="http://www.w3.org/2000/svg" viewBox="0 0 24 24" width="100" height="100" fill="none">
  <circle cx="12" cy="12" r="12" fill="#E60023"/>
  <path d="M12.8 6.5C9.7 6.5 8.1 8.4 8.1 10.5C8.1 11.3 8.4 12.5 9.3 12.9C9.5 11.9 9.4 11.4 9.7 10.2C9.9 9.4 10.6 8.6 11.6 8.6C12.8 8.6 13.2 9.6 13.2 10.3C13.2 11.4 12.7 12.7 11.9 12.7C11.3 12.7 10.9 12 11.1 11.1C11.2 10.6 11.4 9.9 11.4 9.4C11.4 8.8 11.1 8.3 10.5 8.3C9.8 8.3 9.2 9.1 9.2 10.1C9.2 10.8 9.4 11.2 9.4 11.2L8.6 14.6C8.4 15.5 8.3 16.3 8.3 16.8C8.3 17.1 8.6 17.1 8.8 17.1C9.2 17.1 10.2 16.3 10.5 15.3L11.1 13C11.3 13.5 12 14 12.9 14C14.4 14 15.5 12.4 15.5 10.4C15.5 8.1 14 6.5 12.8 6.5Z" fill="#FFFFFF"/>
</svg>
