<?xml version="1.0" standalone="no"?>
<!DOCTYPE svg PUBLIC "-//W3C//DTD SVG 20010904//EN"
 "http://www.w3.org/TR/2001/REC-SVG-20010904/DTD/svg10.dtd">
<svg version="1.0" xmlns="http://www.w3.org/2000/svg"
 width="512.000000pt" height="512.000000pt" viewBox="0 0 512.000000 512.000000"
 preserveAspectRatio="xMidYMid meet">

<g transform="translate(0.000000,512.000000) scale(0.100000,-0.100000)"
fill="" stroke="none">
<path d="M793 5100 c-55 -33 -58 -46 -63 -285 l-5 -220 -219 -3 c-202 -2 -221
-4 -247 -23 -58 -41 -59 -45 -59 -431 0 -484 -18 -458 317 -458 l213 0 0 -216
c0 -236 4 -254 60 -288 25 -14 73 -16 395 -16 486 0 455 -21 455 310 l0 210
213 0 c192 0 215 2 244 20 69 42 68 34 68 440 0 484 23 450 -310 450 l-215 0
0 211 c0 236 -6 262 -65 299 -31 19 -49 20 -391 20 -338 0 -361 -1 -391 -20z
m597 -461 c7 -311 -5 -299 310 -299 l210 0 0 -200 0 -200 -187 0 c-234 0 -256
-4 -299 -47 l-34 -34 0 -224 0 -225 -205 0 -205 0 0 216 c0 315 7 307 -307
312 l-213 3 0 200 0 199 213 0 c314 0 307 -7 307 315 l0 215 203 -2 202 -3 5
-226z"/>
<path d="M3717 4377 c-64 -60 -56 -151 18 -197 31 -19 49 -20 391 -20 l359 0
-345 -345 c-190 -190 -348 -345 -352 -345 -4 0 -44 25 -88 55 -181 123 -356
185 -571 204 -535 45 -1036 -271 -1224 -771 -16 -43 -21 -48 -79 -69 -258 -95
-491 -307 -624 -567 -99 -192 -138 -373 -129 -596 10 -258 80 -450 252 -691
14 -20 7 -28 -120 -155 l-135 -135 -194 194 -195 194 -56 -5 c-66 -6 -102 -34
-114 -90 -16 -68 5 -99 198 -292 l181 -181 -186 -186 c-203 -203 -214 -220
-188 -295 15 -42 45 -70 86 -79 64 -15 86 0 280 193 l188 186 188 -186 c203
-201 221 -213 295 -189 42 14 65 38 77 82 20 67 3 91 -195 289 l-185 185 132
132 c73 73 136 133 140 133 5 0 36 -21 70 -46 88 -65 266 -148 378 -178 580
-154 1187 143 1415 693 36 87 37 88 86 106 68 24 187 87 257 136 416 292 604
819 467 1307 -31 107 -118 286 -180 372 l-47 63 343 343 344 344 5 -352 c5
-323 7 -356 24 -384 38 -63 112 -82 173 -44 64 39 63 25 63 600 0 570 1 556
-59 599 -29 21 -38 21 -569 21 l-541 0 -34 -33z m-452 -925 c101 -29 152 -48
224 -88 247 -136 430 -388 481 -664 16 -83 16 -267 0 -350 -35 -189 -141 -383
-282 -516 -50 -48 -70 -62 -172 -124 l-39 -24 6 47 c8 58 -9 242 -29 322 -84
329 -289 601 -579 768 -165 95 -342 145 -542 154 -73 3 -133 9 -133 12 0 3 21
38 46 76 136 208 368 358 628 405 83 15 310 4 391 -18z m-845 -737 c373 -57
664 -312 777 -682 24 -80 27 -104 27 -255 1 -124 -2 -170 -12 -180 -10 -10
-55 -13 -175 -13 -182 1 -263 17 -406 78 -305 132 -515 426 -550 769 -8 83 0
263 13 276 8 7 108 19 171 21 33 0 103 -6 155 -14z m-594 -223 c1 -277 101
-537 293 -761 222 -256 557 -411 892 -411 55 0 99 -3 99 -6 0 -3 -21 -38 -46
-77 -118 -182 -307 -317 -532 -379 -65 -19 -104 -22 -257 -22 -168 0 -186 2
-270 27 -256 78 -453 239 -572 464 -135 258 -147 556 -33 825 69 163 213 331
356 416 38 23 69 42 69 42 0 0 0 -53 1 -118z"/>
</g>
</svg>
