
<svg xmlns="http://www.w3.org/2000/svg" viewBox="0 0 24 24" width="100" height="100" fill="none">
  <circle cx="12" cy="12" r="12" fill="#FF5500"/>
  <path d="M16.8 13.5C17.5 13.5 18.1 13.7 18.6 14C19.2 14.4 19.5 15.1 19.5 15.8C19.5 16.6 19.2 17.3 18.6 17.7C18.1 18.1 17.5 18.3 16.8 18.3H7.5C6.1 18.3 5 17.2 5 15.8C5 14.4 6.1 13.3 7.5 13.3C7.5 13.3 7.6 13.3 7.6 13.3C7.8 11.3 9.4 9.8 11.4 9.8C12.1 9.8 12.7 10 13.2 10.3C13.1 10.7 13 11.2 13 11.7C13 12.3 13.1 12.8 13.4 13.3H16.8ZM7.5 14.5C6.7 14.5 6 15.2 6 15.8C6 16.6 6.7 17.3 7.5 17.3C8.3 17.3 9 16.6 9 15.8C9 15.2 8.3 14.5 7.5 14.5ZM14.5 15C14.5 14.6 14.1 14.3 13.7 14.3C13.3 14.3 13 14.6 13 15V16.5C13 16.9 13.3 17.2 13.7 17.2C14.1 17.2 14.5 16.9 14.5 16.5V15ZM12.5 14.3C12.1 14.3 11.8 14.6 11.8 15V16.5C11.8 16.9 12.1 17.2 12.5 17.2C12.9 17.2 13.2 16.9 13.2 16.5V15C13.2 14.6 12.9 14.3 12.5 14.3Z" fill="#FFFFFF"/>
</svg>
