
<svg xmlns="http://www.w3.org/2000/svg" viewBox="0 0 24 24" width="100" height="100" fill="none">
  <circle cx="12" cy="12" r="12" fill="#1DB954"/>
  <path d="M16.5 10.5C14.08 9.08 9.92 9.08 7.5 10.5C7.22 10.65 6.88 10.55 6.73 10.27C6.58 9.99 6.68 9.65 6.96 9.5C9.68 8 14.32 8 17.04 9.5C17.32 9.65 17.42 9.99 17.27 10.27C17.12 10.55 16.78 10.65 16.5 10.5ZM16.14 12.5C14.01 11.3 9.99 11.3 7.86 12.5C7.59 12.65 7.23 12.55 7.08 12.27C6.93 11.99 7.03 11.65 7.31 11.5C9.79 10.15 14.21 10.15 16.69 11.5C16.97 11.65 17.07 11.99 16.92 12.27C16.77 12.55 16.41 12.65 16.14 12.5ZM16.27 14.4C14.66 13.46 9.34 13.46 7.73 14.4C7.47 14.54 7.14 14.43 7 14.17C6.86 13.91 6.97 13.57 7.23 13.43C9.11 12.39 14.89 12.39 16.77 13.43C17.03 13.57 17.14 13.91 17 14.17C16.86 14.43 16.53 14.54 16.27 14.4Z" fill="#FFFFFF"/>
</svg>
