<svg id="tag_alt" data-name="tag alt" xmlns="http://www.w3.org/2000/svg" width="12.384" height="12.384" viewBox="0 0 12.384 12.384">
  <path id="Trazado_29360" data-name="Trazado 29360" d="M6.838,6.064a.774.774,0,1,0,.774.774A.773.773,0,0,0,6.838,6.064Zm7.028,2.43L9.526,4.15A.526.526,0,0,0,9.16,4H4.516A.517.517,0,0,0,4,4.516V9.16a.526.526,0,0,0,.15.366l4.345,4.339a1.548,1.548,0,0,0,2.188,0l3.184-3.158a1.548,1.548,0,0,0,0-2.188Zm-.728,1.455h0L9.949,13.133a.514.514,0,0,1-.728,0L5.032,8.948V5.032H8.948l4.19,4.19a.526.526,0,0,1,.15.366A.514.514,0,0,1,13.138,9.949Z" transform="translate(-2.968 -2.968)" fill="#f42eb2"/>
  <path id="Trazado_29361" data-name="Trazado 29361" d="M0,0H12.384V12.384H0Z" fill="none"/>
</svg>
