
<svg xmlns="http://www.w3.org/2000/svg" viewBox="0 0 24 24" width="100" height="100" fill="none">
  <circle cx="12" cy="12" r="12" fill="#000000"/>
  <path d="M16.59 8.15C16.04 7.37 15.92 6.3 15.92 6.3H14.52V14.91C14.52 15.61 13.94 16.19 13.23 16.19C12.76 16.19 12.37 15.91 12.2 15.5C12.14 15.35 12.11 15.18 12.11 15.01C12.11 14.4 12.59 13.92 13.2 13.92C13.44 13.92 13.66 14.01 13.84 14.15V12.18C13.67 12.11 13.48 12.06 13.28 12.06C12.05 12.06 11.06 13.05 11.06 14.28C11.06 15.5 12.05 16.5 13.28 16.5C14.28 16.5 15.14 15.82 15.41 14.9C15.7 14.01 15.74 12.75 15.74 11.75C15.74 11.75 15.89 11.76 16.04 11.76C16.69 11.76 17.27 11.64 17.82 11.4C17.82 11.4 17.96 11.4 18.1 11.41C18.38 11.41 18.55 11.21 18.59 10.93C18.61 10.71 18.55 10.49 18.41 10.34C17.83 9.79 16.92 9.22 16.59 8.15Z" fill="#FFFFFF"/>
</svg>
