<?xml version="1.0" standalone="no"?>
<!DOCTYPE svg PUBLIC "-//W3C//DTD SVG 20010904//EN"
 "http://www.w3.org/TR/2001/REC-SVG-20010904/DTD/svg10.dtd">
<svg version="1.0" xmlns="http://www.w3.org/2000/svg"
 width="512.000000pt" height="512.000000pt" viewBox="0 0 512.000000 512.000000"
 preserveAspectRatio="xMidYMid meet">

<g transform="translate(0.000000,512.000000) scale(0.100000,-0.100000)"
fill="" stroke="none">
<path d="M0 4505 l0 -615 320 0 320 0 0 67 0 68 170 -170 170 -170 -157 -157
-158 -158 108 -107 107 -108 158 158 157 157 129 -129 130 -130 -46 -98 c-174
-371 -169 -776 13 -1133 150 -296 408 -519 727 -630 l92 -33 0 -178 0 -179
-225 0 -225 0 0 -320 0 -320 225 0 225 0 0 -160 0 -160 320 0 320 0 0 160 0
160 225 0 225 0 0 320 0 320 -225 0 -225 0 0 179 0 178 92 33 c199 69 332 153
484 304 162 162 250 303 319 509 103 311 81 642 -63 950 l-46 98 407 407 407
407 0 -228 0 -227 320 0 320 0 0 775 0 775 -775 0 -775 0 0 -320 0 -320 227 0
228 0 -407 -407 -407 -407 -98 46 c-203 95 -399 135 -608 124 -189 -9 -335
-46 -508 -128 l-88 -42 -129 129 -130 130 157 157 158 158 -108 107 -107 108
-158 -158 -157 -157 -170 170 -170 170 68 0 67 0 0 320 0 320 -615 0 -615 0 0
-615z m2710 -1321 c116 -27 205 -79 300 -174 132 -132 190 -268 190 -450 0
-182 -58 -318 -190 -450 -132 -132 -268 -190 -450 -190 -181 0 -319 58 -450
190 -132 132 -190 268 -190 450 0 182 58 318 190 450 92 93 185 147 297 174
78 19 223 19 303 0z"/>
</g>
</svg>
