<svg xmlns="http://www.w3.org/2000/svg" width="13.822" height="15.357" viewBox="0 0 13.822 15.357">
  <path id="trash" d="M11.375,16.286a.77.77,0,0,0,.768-.768V10.911a.768.768,0,1,0-1.536,0v4.607A.77.77,0,0,0,11.375,16.286Zm7.679-9.214H15.982V6.3a2.305,2.305,0,0,0-2.3-2.3H12.143a2.305,2.305,0,0,0-2.3,2.3v.768H6.768a.768.768,0,0,0,0,1.536h.768v8.447a2.305,2.305,0,0,0,2.3,2.3h6.143a2.305,2.305,0,0,0,2.3-2.3V8.607h.768a.768.768,0,1,0,0-1.536ZM11.375,6.3a.77.77,0,0,1,.768-.768h1.536a.77.77,0,0,1,.768.768v.768H11.375Zm5.375,10.75a.77.77,0,0,1-.768.768H9.839a.77.77,0,0,1-.768-.768V8.607H16.75Zm-2.3-.768a.77.77,0,0,0,.768-.768V10.911a.768.768,0,1,0-1.536,0v4.607A.77.77,0,0,0,14.447,16.286Z" transform="translate(-6 -4)" fill="#fff"/>
</svg>
