<svg xmlns="http://www.w3.org/2000/svg" width="37" height="37" viewBox="0 0 37 37">
  <g id="usuario-verificado" transform="translate(-232.819 -227.819)">
    <rect id="Rectángulo_18592" data-name="Rectángulo 18592" width="37" height="37" rx="18.5" transform="translate(232.819 227.819)" fill="#f42eb2"/>
    <g id="award" transform="translate(239.173 234.173)">
      <path id="Trazado_31619" data-name="Trazado 31619" d="M23.978,19.6l-2.727-4.71a6.924,6.924,0,0,0,.845-3.341,7.044,7.044,0,0,0-14.089,0,6.924,6.924,0,0,0,.845,3.341L6.126,19.6a1,1,0,0,0,0,1.006A1.01,1.01,0,0,0,7,21.1H9.89l1.469,2.476a1.09,1.09,0,0,0,.181.221,1,1,0,0,0,.694.282h.141a1.01,1.01,0,0,0,.735-.493l1.942-3.341,1.942,3.371a1,1,0,0,0,.735.483h.141a1.024,1.024,0,0,0,.7-.282.876.876,0,0,0,.171-.211l1.469-2.476H23.1a1.021,1.021,0,0,0,.876-1.54Zm-11.754,1.54-.9-1.5a1.013,1.013,0,0,0-.855-.493H8.732l1.439-2.5A7.023,7.023,0,0,0,13.764,18.5Zm2.828-4.559a5.032,5.032,0,1,1,5.032-5.032A5.034,5.034,0,0,1,15.052,16.576Zm4.579,2.566a1.013,1.013,0,0,0-.855.493l-.9,1.5-1.53-2.667a7.089,7.089,0,0,0,3.583-1.852l1.439,2.5Z" transform="translate(-2.976 -2.236)" fill="#fff"/>
      <path id="Trazado_31620" data-name="Trazado 31620" d="M0,0H24.152V24.152H0Z" fill="none"/>
    </g>
  </g>
</svg>
