
<svg xmlns="http://www.w3.org/2000/svg" viewBox="0 0 24 24" width="100" height="100" fill="none">
  <circle cx="12" cy="12" r="12" fill="#1AB7EA"/>
  <path d="M17.55 9.41C17.18 6.61 14.84 6.55 14.01 6.63 13.18 6.72 12.7 7.47 12.3 8.13 11.77 8.97 11.22 9.87 10.52 9.89 9.87 9.91 9.56 9.22 9.16 8.31 8.87 7.64 8.59 6.97 8.09 6.7 7.69 6.48 6.95 6.8 6.48 7.29 5.67 8.13 5.44 9.39 5.93 10.81 6.42 12.24 7.31 13.93 8.59 13.95 9.87 13.98 10.92 12.87 11.59 12.07 12.25 11.26 12.7 10.34 13.02 10.39 13.34 10.44 13.56 10.85 13.75 11.19 14.18 11.92 14.68 12.87 15.37 13.04 16.04 13.21 16.68 12.81 17.37 12.41 18.1 11.32 18.43 10.46 18.76 9.61 18.7 9.08 18.33 8.99 17.96 8.9 17.55 9.41Z" fill="#FFFFFF"/>
</svg>
