<svg xmlns="http://www.w3.org/2000/svg" width="19.839" height="18.847" viewBox="0 0 19.839 18.847">
  <path id="workspace" d="M20.863,7.976H14.634l-.317-.992A2.973,2.973,0,0,0,11.5,5H6.976A2.978,2.978,0,0,0,4,7.976v12.9a2.978,2.978,0,0,0,2.976,2.976H20.863a2.978,2.978,0,0,0,2.976-2.976v-9.92A2.978,2.978,0,0,0,20.863,7.976Zm.992,12.9a1,1,0,0,1-.992.992H6.976a1,1,0,0,1-.992-.992V7.976a1,1,0,0,1,.992-.992H11.5a1,1,0,0,1,.942.675l.536,1.627a1,1,0,0,0,.942.675h6.944a1,1,0,0,1,.992.992Z" transform="translate(-4 -5)" />
</svg>
