<svg xmlns="http://www.w3.org/2000/svg" width="35" height="35" viewBox="0 0 35 35">
  <g id="ajustes-perfil" transform="translate(-379 -78)">
    <path id="Trazado_31610" data-name="Trazado 31610" d="M17.5,0A17.5,17.5,0,1,1,0,17.5,17.5,17.5,0,0,1,17.5,0Z" transform="translate(379 78)" fill="currentColor"/>
    <path id="Unión_102" data-name="Unión 102" d="M8.936,20A1.017,1.017,0,0,1,8,19.315L7.436,17.5,6.5,17.126,4.876,18a1.062,1.062,0,0,1-1.191-.188l-1.5-1.5A1.062,1.062,0,0,1,2,15.124L2.874,13.5,2.5,12.564.751,12A1,1,0,0,1,0,11.064V8.935A1.016,1.016,0,0,1,.685,8l1.753-.562c.122-.31.249-.685.375-1L2,4.876a1.062,1.062,0,0,1,.187-1.191l1.5-1.5A1.062,1.062,0,0,1,4.876,2L6.5,2.874a2.758,2.758,0,0,1,1-.375L8.065.75A.869.869,0,0,1,8.936,0h2.129A1.017,1.017,0,0,1,12,.685l.563,1.753.937.375,1.622-.877a1.054,1.054,0,0,1,1.191.187l1.5,1.5A1.057,1.057,0,0,1,18,4.811l-.877,1.626.375.938,1.749.562a1.067,1.067,0,0,1,.75,1v2.128a1.017,1.017,0,0,1-.685.938l-1.814.562-.375.937L18,15.124a1.064,1.064,0,0,1-.187,1.191l-1.5,1.5A1.063,1.063,0,0,1,15.124,18L13.5,17.126l-.937.375L12,19.315a1.017,1.017,0,0,1-.937.685ZM6.813,15.874l1.313.562.314.065.685,2.251h1.753l.685-2.251.313-.065a5.592,5.592,0,0,0,1.313-.562l.314-.188,2.063,1.125,1.247-1.247L15.687,13.5l.188-.314c.187-.436.374-.876.562-1.312l.066-.313,2.25-.685V9.123L16.5,8.439l-.066-.314a5.668,5.668,0,0,0-.562-1.313L15.687,6.5l1.126-2.063L15.565,3.188,13.5,4.313l-.314-.187a5.592,5.592,0,0,0-1.313-.562l-.313-.127-.685-2.189H9.124L8.439,3.436l-.314.127a5.024,5.024,0,0,0-1.374.562l-.314.187-2-1.125L3.189,4.435,4.248,6.5l-.187.314A5.419,5.419,0,0,0,3.5,8.186L3.376,8.5l-2.128.624v1.753l2.25.685.066.313a5.687,5.687,0,0,0,.563,1.313l.188.314L3.189,15.565l1.247,1.247L6.5,15.686ZM5.688,10a4.376,4.376,0,1,1,4.374,4.374A4.345,4.345,0,0,1,5.688,10Zm1.251,0a3.124,3.124,0,1,0,3.122-3.127A3.1,3.1,0,0,0,6.939,10Z" transform="translate(386 86)" fill="#fefefe"/>
  </g>
</svg>
