<svg xmlns="http://www.w3.org/2000/svg" width="48.185" height="29.188" viewBox="0 0 48.185 29.188">
  <g id="apple-pay" transform="translate(-1.051 -1.053)">
    <path id="XMLID_00000055696588612026456740000009972003690246372767_" d="M55.591,102.952a10.107,10.107,0,0,1,1.707.072,2.07,2.07,0,0,1,1.1.538,1.957,1.957,0,0,1,.556,1.066,9.06,9.06,0,0,1,.074,1.656V128.8a9.083,9.083,0,0,1-.075,1.658,1.966,1.966,0,0,1-.555,1.062,2.069,2.069,0,0,1-1.094.539,10.083,10.083,0,0,1-1.709.072H14.277a9.985,9.985,0,0,1-1.7-.071,2.064,2.064,0,0,1-1.1-.54,1.973,1.973,0,0,1-.555-1.065,9.12,9.12,0,0,1-.074-1.655V106.284a4.742,4.742,0,0,1,.271-2.242,1.944,1.944,0,0,1,.852-.827,5.243,5.243,0,0,1,2.31-.263H55.591" transform="translate(-9.79 -101.892)" fill="#fff"/>
    <g id="Grupo_11086" data-name="Grupo 11086" transform="translate(1.839 6.424)">
      <g id="Grupo_11084" data-name="Grupo 11084">
        <path id="Trazado_46647" data-name="Trazado 46647" d="M123.007,184.457a3.506,3.506,0,0,0,.807-2.5,3.478,3.478,0,0,0-2.305,1.193,3.283,3.283,0,0,0-.827,2.4,2.9,2.9,0,0,0,2.325-1.1" transform="translate(-114.37 -181.957)"/>
        <path id="Trazado_46648" data-name="Trazado 46648" d="M78.83,212.619c-1.284-.076-2.376.729-2.989.729s-1.552-.69-2.568-.672a3.786,3.786,0,0,0-3.219,1.955c-1.38,2.378-.364,5.905.978,7.842.651.958,1.437,2.013,2.471,1.975.978-.038,1.361-.633,2.549-.633s1.532.633,2.567.614c1.073-.019,1.744-.959,2.4-1.918a8.515,8.515,0,0,0,1.073-2.2A3.482,3.482,0,0,1,80,217.144a3.549,3.549,0,0,1,1.686-2.972,3.67,3.67,0,0,0-2.855-1.552" transform="translate(-69.397 -208.851)"/>
      </g>
      <g id="Grupo_11085" data-name="Grupo 11085" transform="translate(16.056 1.096)">
        <path id="Trazado_46649" data-name="Trazado 46649" d="M198.78,190.889a4.512,4.512,0,0,1,4.734,4.724,4.563,4.563,0,0,1-4.8,4.744h-3.09v4.914h-2.232V190.889Zm-3.16,7.595h2.562c1.944,0,3.05-1.046,3.05-2.86s-1.106-2.85-3.04-2.85H195.62Z" transform="translate(-193.388 -190.889)"/>
        <path id="Trazado_46650" data-name="Trazado 46650" d="M280.626,228.785c0-1.834,1.405-2.96,3.9-3.1l2.87-.169v-.807c0-1.166-.787-1.864-2.1-1.864a2.007,2.007,0,0,0-2.213,1.535h-2.033c.12-1.894,1.734-3.289,4.326-3.289,2.541,0,4.166,1.346,4.166,3.448v7.226h-2.063V230.04h-.05a3.746,3.746,0,0,1-3.309,1.9A3.178,3.178,0,0,1,280.626,228.785Zm6.767-.947v-.827l-2.582.159c-1.286.09-2.013.658-2.013,1.555,0,.917.757,1.515,1.914,1.515A2.513,2.513,0,0,0,287.393,227.838Z" transform="translate(-269.917 -217.382)"/>
        <path id="Trazado_46651" data-name="Trazado 46651" d="M361.668,236.976v-1.744a3.988,3.988,0,0,0,.7.04,1.746,1.746,0,0,0,1.864-1.495c0-.02.19-.638.19-.648l-3.787-10.5h2.332l2.652,8.532h.04l2.652-8.532h2.272l-3.927,11.033c-.9,2.542-1.933,3.359-4.106,3.359A8.356,8.356,0,0,1,361.668,236.976Z" transform="translate(-340.1 -218.737)"/>
      </g>
    </g>
  </g>
</svg>
