<svg xmlns="http://www.w3.org/2000/svg" width="35" height="35" viewBox="0 0 35 35">
  <g id="asistente" transform="translate(-379 -72)">
    <path id="Trazado_31610" data-name="Trazado 31610" d="M17.5,0A17.5,17.5,0,1,1,0,17.5,17.5,17.5,0,0,1,17.5,0Z" transform="translate(379 72)" fill="#3a3a43"/>
    <path id="Unión_111" data-name="Unión 111" d="M7.213,22.675A5.04,5.04,0,0,1,3.427,21.1,5.707,5.707,0,0,1,2.2,17.177,2.906,2.906,0,0,1,0,14.4V12.48A2.894,2.894,0,0,1,2,9.773V7.68A7.843,7.843,0,0,1,10,0a7.843,7.843,0,0,1,8,7.68V9.773a2.894,2.894,0,0,1,2,2.707V14.4a2.944,2.944,0,0,1-3,2.88H14a.983.983,0,0,1-1-.96V10.56a.983.983,0,0,1,1-.96h2V7.68a5.882,5.882,0,0,0-6-5.76A5.882,5.882,0,0,0,4,7.68V9.6H6a.984.984,0,0,1,1,.96v5.76a.984.984,0,0,1-1,.96H3.951a4.054,4.054,0,0,0,.817,2.737,3.326,3.326,0,0,0,2.451.977A2.845,2.845,0,0,1,9.75,19.68a2.509,2.509,0,0,1,2.75,2.16A2.509,2.509,0,0,1,9.75,24,2.841,2.841,0,0,1,7.213,22.675ZM8.5,21.84a.589.589,0,0,0,.255.413,1.634,1.634,0,0,0,.995.307c.7,0,1.25-.387,1.25-.72a.589.589,0,0,0-.255-.413,1.633,1.633,0,0,0-.994-.307C9.046,21.12,8.5,21.507,8.5,21.84ZM15,15.36h2a.984.984,0,0,0,1-.96V12.48a.983.983,0,0,0-1-.96H15ZM2,12.48V14.4a.984.984,0,0,0,1,.96H5V11.52H3A.984.984,0,0,0,2,12.48Z" transform="translate(386.5 78)" fill="#fff"/>
  </g>
</svg>
