<svg xmlns="http://www.w3.org/2000/svg" width="12.417" height="13.038" viewBox="0 0 12.417 13.038">
  <path id="birthday-cake" d="M11.933,4.967h-3.1V3.1H7.588V4.967h-3.1A2.483,2.483,0,0,0,2,7.45v5.588H14.417V7.45A2.483,2.483,0,0,0,11.933,4.967ZM13.175,11.8H3.242V9.933a2.347,2.347,0,0,0,1.682-.807.956.956,0,0,1,1.6,0,2.167,2.167,0,0,0,3.365,0,.956.956,0,0,1,1.6,0,2.347,2.347,0,0,0,1.682.807Zm0-3.1a1.242,1.242,0,0,1-.8-.435,2.167,2.167,0,0,0-3.365,0,.956.956,0,0,1-1.6,0,2.167,2.167,0,0,0-3.365,0,1.242,1.242,0,0,1-.8.435V7.45A1.242,1.242,0,0,1,4.483,6.208h7.45A1.242,1.242,0,0,1,13.175,7.45ZM8.208,2.6a.962.962,0,0,0,.962-.962C9.171.869,8.208,0,8.208,0s-.962.869-.962,1.639a.962.962,0,0,0,.962.962Z" transform="translate(-2)" fill="currentColor"/>
</svg>
