<svg xmlns="http://www.w3.org/2000/svg" width="11.557" height="11.563" viewBox="0 0 11.557 11.563">
  <path id="Trazado_31660" data-name="Trazado 31660" d="M13.828,10.923a.584.584,0,0,0-.439.061.571.571,0,0,0-.266.355A4.043,4.043,0,0,1,9.2,14.391H5.974l.37-.364a.576.576,0,0,0,0-.815A4.045,4.045,0,0,1,8.193,6.427.579.579,0,1,0,7.9,5.306a5.2,5.2,0,0,0-2.745,8.287l-.988.965a.582.582,0,0,0,.41.988H9.2a5.2,5.2,0,0,0,5.039-3.9.585.585,0,0,0-.055-.451A.574.574,0,0,0,13.828,10.923Zm.89-6.091a2.889,2.889,0,1,0,.844,2.046A2.889,2.889,0,0,0,14.718,4.832Zm-3.78,2.046a1.725,1.725,0,0,1,2.479-1.56L11.106,7.629A1.729,1.729,0,0,1,10.938,6.878ZM13.9,8.1a1.782,1.782,0,0,1-1.965.329l2.312-2.312a1.758,1.758,0,0,1,.162.757A1.725,1.725,0,0,1,13.9,8.1Z" transform="translate(-4.004 -3.983)" fill="#f42eb2"/>
</svg>
