<svg xmlns="http://www.w3.org/2000/svg" width="16.679" height="12.51" viewBox="0 0 16.679 12.51">
  <path id="Trazado_46591" data-name="Trazado 46591" d="M8.17,18.34h2.5a.834.834,0,0,0,0-1.668H8.17a.834.834,0,0,0,0,1.668ZM18.178,10H6.5A2.5,2.5,0,0,0,4,12.5v7.506a2.5,2.5,0,0,0,2.5,2.5H18.178a2.5,2.5,0,0,0,2.5-2.5V12.5A2.5,2.5,0,0,0,18.178,10Zm.834,10.008a.836.836,0,0,1-.834.834H6.5a.836.836,0,0,1-.834-.834V15H19.011Zm0-6.672H5.668V12.5a.836.836,0,0,1,.834-.834H18.178a.836.836,0,0,1,.834.834Z" transform="translate(-4 -10)" fill="#f42eb2"/>
</svg>
