<svg xmlns="http://www.w3.org/2000/svg" width="14.542" height="14.454" viewBox="0 0 14.542 14.454">
  <path id="Trazado_46581" data-name="Trazado 46581" d="M11.2,4a7.226,7.226,0,1,0,3.563,13.506h.087A7.227,7.227,0,0,0,11.2,4Zm.723,1.5A5.783,5.783,0,0,1,16.932,10.5H11.924ZM11.2,17.007A5.781,5.781,0,0,1,10.478,5.5v5.731a.851.851,0,0,0,.051.253v.108l2.891,4.965A5.642,5.642,0,0,1,11.2,17.007Zm3.49-1.185-2.24-3.873h4.48A5.782,5.782,0,0,1,14.691,15.822Z" transform="translate(-3.96 -3.999)" fill="#f42eb2"/>
</svg>
