<svg id="comment_alt_message" data-name="comment alt message" xmlns="http://www.w3.org/2000/svg" width="14.39" height="14.39" viewBox="0 0 14.39 14.39">
  <path id="Trazado_46632" data-name="Trazado 46632" d="M12.994,7H7A.6.6,0,0,0,7,8.2h6a.6.6,0,1,0,0-1.2Zm0,2.4H7a.6.6,0,0,0,0,1.2h6a.6.6,0,1,0,0-1.2Zm1.2-5.4H5.8A1.8,1.8,0,0,0,4,5.8v6a1.8,1.8,0,0,0,1.8,1.8h6.949l2.219,2.225a.611.611,0,0,0,.426.174.5.5,0,0,0,.228-.048.6.6,0,0,0,.372-.552V5.8A1.8,1.8,0,0,0,14.193,4Zm.6,9.947L13.42,12.568a.611.611,0,0,0-.426-.174H5.8a.6.6,0,0,1-.6-.6v-6a.6.6,0,0,1,.6-.6h8.394a.6.6,0,0,1,.6.6Z" transform="translate(-2.801 -2.801)" fill="currentColor"/>
  <path id="Trazado_46633" data-name="Trazado 46633" d="M0,0H14.39V14.39H0Z" fill="none"/>
</svg>
