<svg xmlns="http://www.w3.org/2000/svg" width="43" height="43" viewBox="0 0 43 43">
  <g id="destacar-mi-perfil" transform="translate(-0.391 -0.391)">
    <rect id="Rectángulo_18592" data-name="Rectángulo 18592" width="43" height="43" rx="20" transform="translate(0.391 0.391)" fill="#f42eb2"/>
    <g id="award" transform="translate(7.529 7.529)">
      <path id="Trazado_31619" data-name="Trazado 31619" d="M27.308,22.389l-3.232-5.581a8.206,8.206,0,0,0,1-3.959,8.348,8.348,0,0,0-16.7,0,8.206,8.206,0,0,0,1,3.959L6.151,22.389a1.185,1.185,0,0,0,0,1.193,1.2,1.2,0,0,0,1.038.6h3.423l1.741,2.934a1.292,1.292,0,0,0,.215.262,1.185,1.185,0,0,0,.823.334h.167a1.2,1.2,0,0,0,.871-.584l2.3-3.959,2.3,4a1.183,1.183,0,0,0,.871.572h.167A1.213,1.213,0,0,0,20.9,27.4a1.038,1.038,0,0,0,.2-.25l1.741-2.934H26.27a1.21,1.21,0,0,0,1.038-1.825ZM13.378,24.214l-1.061-1.777a1.2,1.2,0,0,0-1.014-.584H9.24l1.705-2.958A8.322,8.322,0,0,0,15.2,21.089Zm3.351-5.4a5.963,5.963,0,1,1,5.963-5.963A5.965,5.965,0,0,1,16.729,18.811Zm5.426,3.041a1.2,1.2,0,0,0-1.014.584L20.08,24.214l-1.813-3.16a8.4,8.4,0,0,0,4.246-2.194l1.705,2.958Z" transform="translate(-2.418 -1.817)" fill="#fff"/>
      <path id="Trazado_31620" data-name="Trazado 31620" d="M0,0H28.622V28.622H0Z" fill="none"/>
    </g>
  </g>
</svg>
