<svg id="file_lock_alt" data-name="file lock alt" xmlns="http://www.w3.org/2000/svg" width="15.308" height="15.308" viewBox="0 0 15.308 15.308">
  <path id="Trazado_31646" data-name="Trazado 31646" d="M9.1,15.481H5.913a.64.64,0,0,1-.638-.638V5.913a.64.64,0,0,1,.638-.638H9.1V7.189A1.915,1.915,0,0,0,11.016,9.1h2.551a.642.642,0,0,0,.453-1.091L10.193,4.185h0a.68.68,0,0,0-.179-.121.173.173,0,0,0-.057,0L9.779,4H5.913A1.915,1.915,0,0,0,4,5.913v8.929a1.915,1.915,0,0,0,1.913,1.913H9.1a.638.638,0,0,0,0-1.276Zm1.276-9.306L12.03,7.827H11.016a.64.64,0,0,1-.638-.638Zm.638,4.841a.64.64,0,0,0-.638-.638H7.189a.638.638,0,0,0,0,1.276h3.189A.64.64,0,0,0,11.016,11.016ZM7.189,9.1h.638a.638.638,0,1,0,0-1.276H7.189a.638.638,0,0,0,0,1.276Zm0,3.827a.638.638,0,0,0,0,1.276H8.465a.638.638,0,0,0,0-1.276Zm8.292-.523v-.115a1.913,1.913,0,1,0-3.827,0v.115a1.916,1.916,0,0,0-1.276,1.8v.638a1.915,1.915,0,0,0,1.913,1.913h2.551a1.915,1.915,0,0,0,1.913-1.913v-.638A1.916,1.916,0,0,0,15.481,12.406Zm-1.913-.753a.64.64,0,0,1,.638.638H12.929A.64.64,0,0,1,13.567,11.654Zm1.913,3.189a.64.64,0,0,1-.638.638H12.292a.64.64,0,0,1-.638-.638v-.638a.64.64,0,0,1,.638-.638h2.551a.64.64,0,0,1,.638.638Z" transform="translate(-2.724 -2.724)" fill="#f42eb2"/>
  <path id="Trazado_31647" data-name="Trazado 31647" d="M0,0H15.308V15.308H0Z" fill="none"/>
</svg>
