<svg id="Grupo_11065" data-name="Grupo 11065" xmlns="http://www.w3.org/2000/svg" width="16.151" height="16.151" viewBox="0 0 16.151 16.151">
  <path id="Trazado_37638" data-name="Trazado 37638" d="M142.261,131h-6.172a4.992,4.992,0,0,0-4.989,4.989v6.172a4.992,4.992,0,0,0,4.989,4.989h6.172a4.992,4.992,0,0,0,4.989-4.989v-6.172A4.992,4.992,0,0,0,142.261,131Zm3.186,11.168a3.2,3.2,0,0,1-3.193,3.193h-6.172a3.2,3.2,0,0,1-3.193-3.193V136a3.2,3.2,0,0,1,3.193-3.193h6.172A3.2,3.2,0,0,1,145.448,136Z" transform="translate(-131.1 -131)" fill="currentColor"/>
  <path id="Trazado_37639" data-name="Trazado 37639" d="M196.23,192.1a4.13,4.13,0,1,0,4.13,4.13A4.137,4.137,0,0,0,196.23,192.1Zm0,6.637a2.508,2.508,0,1,1,2.508-2.508A2.51,2.51,0,0,1,196.23,198.737Z" transform="translate(-188.158 -188.151)" fill="currentColor"/>
  <circle id="Elipse_529" data-name="Elipse 529" cx="0.698" cy="0.698" r="0.698" transform="matrix(0.987, -0.16, 0.16, 0.987, 11.604, 3.135)" fill="currentColor"/>
</svg>
