<svg xmlns="http://www.w3.org/2000/svg" width="14.826" height="14.826" viewBox="0 0 14.826 14.826">
  <g id="Grupo_11080" data-name="Grupo 11080" transform="translate(0.25 0.25)">
    <path id="Trazado_46631" data-name="Trazado 46631" d="M11.589,8.373A1.789,1.789,0,0,0,9.408,9.655a.359.359,0,0,0,.695.179,1.075,1.075,0,0,1,2.059-.072,1.08,1.08,0,0,1-.68,1.361,1.082,1.082,0,0,0-.7,1.039v.451a.354.354,0,0,0,.358.355h0a.357.357,0,0,0,.358-.358v-.448a.368.368,0,0,1,.218-.362,1.789,1.789,0,0,0-.125-3.427Zm-.451,5.222a.448.448,0,1,0,.448.448A.448.448,0,0,0,11.138,13.595ZM11.163,4a7.163,7.163,0,1,0,7.163,7.163A7.161,7.161,0,0,0,11.163,4Zm0,13.609a6.447,6.447,0,1,1,6.447-6.447A6.447,6.447,0,0,1,11.163,17.609Z" transform="translate(-4 -4)" fill="#f42eb2"/>
    <path id="Trazado_31634_-_Contorno" data-name="Trazado 31634 - Contorno" d="M11.163,3.75A7.413,7.413,0,1,1,3.75,11.163,7.421,7.421,0,0,1,11.163,3.75Zm0,14.326A6.913,6.913,0,1,0,4.25,11.163,6.93,6.93,0,0,0,11.163,18.076Zm0-13.609a6.7,6.7,0,1,1-6.7,6.7A6.714,6.714,0,0,1,11.163,4.466Zm0,12.893a6.2,6.2,0,1,0-6.2-6.2A6.2,6.2,0,0,0,11.163,17.359Zm-.024-9.294h0a2.05,2.05,0,0,1,.512.065,2.039,2.039,0,0,1,.158,3.9.116.116,0,0,0-.064.113v.465a.609.609,0,0,1-.608.608h-.006a.6.6,0,0,1-.6-.6v-.449a1.334,1.334,0,0,1,.864-1.275l.008,0a.831.831,0,0,0,.523-1.045.825.825,0,0,0-1.58.055.608.608,0,0,1-.588.458.615.615,0,0,1-.154-.02.6.6,0,0,1-.37-.276.605.605,0,0,1-.067-.465A2.037,2.037,0,0,1,11.139,8.066Zm.107,4.1a.614.614,0,0,1,.366-.6l.022-.009a1.546,1.546,0,0,0,1-1.073,1.542,1.542,0,0,0-1.107-1.875,1.539,1.539,0,0,0-1.877,1.1.109.109,0,0,0,.012.084.1.1,0,0,0,.063.048.124.124,0,0,0,.032,0,.107.107,0,0,0,.1-.082A1.325,1.325,0,0,1,12.4,9.684a1.332,1.332,0,0,1-.834,1.675.833.833,0,0,0-.536.8v.457a.1.1,0,0,0,.1.1h.006a.107.107,0,0,0,.108-.108Zm-.108,1.175a.7.7,0,1,1-.7.7A.7.7,0,0,1,11.138,13.345Zm0,.9a.2.2,0,0,0,.2-.2.2.2,0,1,0-.4,0A.2.2,0,0,0,11.138,14.24Z" transform="translate(-4 -4)" fill="#f42eb2"/>
  </g>
</svg>
