<svg xmlns="http://www.w3.org/2000/svg" width="13.362" height="14.066" viewBox="0 0 13.362 14.066">
  <path id="language" d="M18.768,11.032H17.361a.7.7,0,0,0,0,1.406v1.406h-.833a2.1,2.1,0,0,0-3.8-1.758.7.7,0,1,0,1.217.7.7.7,0,1,1,.608,1.055.7.7,0,0,0,0,1.406.7.7,0,1,1-.608,1.055.7.7,0,1,0-1.217.7,2.1,2.1,0,0,0,3.8-1.758h.833v2.11a.7.7,0,0,0,1.406,0V12.439a.7.7,0,0,0,0-1.406ZM10.35,10.5a.7.7,0,1,0,1.364-.345L10.48,5.217a1.6,1.6,0,0,0-3.112,0L6.13,10.157a.7.7,0,0,0,1.364.345l.394-1.579H9.956ZM8.24,7.516l.492-1.959a.2.2,0,0,1,.19-.134.209.209,0,0,1,.193.134L9.6,7.516Zm5.6,0h.7a.7.7,0,0,1,.7.7v.7a.7.7,0,0,0,1.406,0v-.7a2.111,2.111,0,0,0-2.11-2.11h-.7a.7.7,0,0,0,0,1.406Zm-2.813,6.329h-.7a.705.705,0,0,1-.7-.7v-.7a.7.7,0,0,0-1.406,0v.7a2.111,2.111,0,0,0,2.11,2.11h.7a.7.7,0,0,0,0-1.406Z" transform="translate(-6.109 -4)" fill="currentColor"/>
</svg>
