<svg id="lock_open_alt" data-name="lock open alt" xmlns="http://www.w3.org/2000/svg" width="13.885" height="13.885" viewBox="0 0 13.885 13.885">
  <path id="Trazado_31644" data-name="Trazado 31644" d="M12.628,10.368a.861.861,0,0,0-.579,1.51v.8a.579.579,0,0,0,1.157,0v-.8a.861.861,0,0,0-.579-1.51Zm2.893-2.314H10.893V6.9a1.737,1.737,0,0,1,2.962-1.232,1.79,1.79,0,0,1,.451.8.58.58,0,0,0,1.122-.289,2.959,2.959,0,0,0-.758-1.325A2.894,2.894,0,0,0,9.736,6.9V8.053A1.737,1.737,0,0,0,8,9.789v4.05a1.737,1.737,0,0,0,1.736,1.736h5.785a1.737,1.737,0,0,0,1.736-1.736V9.789A1.737,1.737,0,0,0,15.521,8.053Zm.579,5.785a.58.58,0,0,1-.579.579H9.736a.58.58,0,0,1-.579-.579V9.789a.58.58,0,0,1,.579-.579h5.785a.58.58,0,0,1,.579.579Z" transform="translate(-5.686 -2.847)" fill="currentColor"/>
  <path id="Trazado_31645" data-name="Trazado 31645" d="M0,0H13.885V13.885H0Z" fill="none"/>
</svg>
