<svg xmlns="http://www.w3.org/2000/svg" xmlns:xlink="http://www.w3.org/1999/xlink" width="155.687" height="212.403" viewBox="0 0 155.687 212.403">
  <defs>
    <filter id="Trazado_21553" x="0" y="0" width="155.687" height="155.687" filterUnits="userSpaceOnUse">
      <feOffset input="SourceAlpha"/>
      <feGaussianBlur stdDeviation="10" result="blur"/>
      <feFlood flood-color="#bb0888" flood-opacity="0.8"/>
      <feComposite operator="in" in2="blur"/>
      <feComposite in="SourceGraphic"/>
    </filter>
  </defs>
  <g id="logotipo-1" transform="translate(-137 -345)">
    <g transform="matrix(1, 0, 0, 1, 137, 345)" filter="url(#Trazado_21553)">
      <path id="Trazado_21553-2" data-name="Trazado 21553" d="M87.844,39.911a47.843,47.843,0,1,0,47.844,47.843A47.883,47.883,0,0,0,87.844,39.911Zm7.412,67.61H80.431V67.988H95.256Z" transform="translate(-10 -9.91)" fill="#f0eff1"/>
    </g>
    <path id="Trazado_21554" data-name="Trazado 21554" d="M45.068,233.477H49.41V252.1H45.068Z" transform="translate(124.963 257.284)" fill="#f0eff1"/>
    <path id="Trazado_21555" data-name="Trazado 21555" d="M60.91,237.343l.32.056v14.7H56.887V233.477h5.926l7.77,14.671-.32.057V233.477h4.343V252.1H68.651Z" transform="translate(120.212 257.284)" fill="#f0eff1"/>
    <path id="Trazado_21556" data-name="Trazado 21556" d="M111.29,232.911a11.431,11.431,0,0,1,3.122.381,11.73,11.73,0,0,1,2.15.8,8.132,8.132,0,0,1,.987.564l-2.091,3.4q-.232-.17-.8-.494a6.864,6.864,0,0,0-1.322-.578,4.935,4.935,0,0,0-1.583-.254,3.663,3.663,0,0,0-1.815.395,1.232,1.232,0,0,0-.683,1.143,1.417,1.417,0,0,0,.363.945,3.97,3.97,0,0,0,1.133.79q.77.367,1.946.8a13.446,13.446,0,0,1,2.018.9,7.228,7.228,0,0,1,1.656,1.242,5.33,5.33,0,0,1,1.148,1.637,5.083,5.083,0,0,1,.421,2.116,4.868,4.868,0,0,1-.6,2.454,5.038,5.038,0,0,1-1.627,1.707,7.329,7.329,0,0,1-2.324,1,10.539,10.539,0,0,1-2.686.338,13.2,13.2,0,0,1-3.544-.437,12.957,12.957,0,0,1-2.512-.945,8.019,8.019,0,0,1-1.148-.678l2.164-3.54q.174.127.668.409a13.624,13.624,0,0,0,1.234.593,12.276,12.276,0,0,0,1.539.508,6.551,6.551,0,0,0,1.627.212,3.363,3.363,0,0,0,2-.494,1.634,1.634,0,0,0,.247-2.413,4.146,4.146,0,0,0-1.264-.9,20.208,20.208,0,0,0-2.106-.917,13.478,13.478,0,0,1-2.367-1.2,5.889,5.889,0,0,1-1.772-1.763,4.745,4.745,0,0,1-.682-2.624,4.245,4.245,0,0,1,.9-2.709,5.893,5.893,0,0,1,2.4-1.777A8.255,8.255,0,0,1,111.29,232.911Z" transform="translate(101.474 257.511)" fill="#f0eff1"/>
    <path id="Trazado_21557" data-name="Trazado 21557" d="M132.287,233.477h4.342V252.1h-4.342Z" transform="translate(89.905 257.284)" fill="#f0eff1"/>
    <path id="Trazado_21558" data-name="Trazado 21558" d="M147.678,237.173H143.1v-3.7h13.478v3.7H152.02V252.1h-4.342Z" transform="translate(85.557 257.284)" fill="#f0eff1"/>
    <path id="Trazado_21559" data-name="Trazado 21559" d="M179.561,233.477H183.9v11.441a8.17,8.17,0,0,1-.929,3.992,6.479,6.479,0,0,1-2.658,2.61,8.691,8.691,0,0,1-4.125.917,8.812,8.812,0,0,1-4.154-.917,6.461,6.461,0,0,1-2.672-2.61,8.274,8.274,0,0,1-.915-3.992V233.477h4.328v11.215a5.071,5.071,0,0,0,.407,2.145,2.993,2.993,0,0,0,1.191,1.326,3.611,3.611,0,0,0,1.816.437,3.5,3.5,0,0,0,1.786-.437,2.936,2.936,0,0,0,1.162-1.326,4.921,4.921,0,0,0,.421-2.145Z" transform="translate(75.368 257.284)" fill="#f0eff1"/>
    <path id="Trazado_21560" data-name="Trazado 21560" d="M41.307,288.5a9.438,9.438,0,0,1,1.249-2.539,11.678,11.678,0,0,1,2.527-2.68,13.838,13.838,0,0,1,3.95-2.088,16.517,16.517,0,0,1,5.432-.818,15.049,15.049,0,0,1,6.478,1.326,10.716,10.716,0,0,1,4.473,3.64,9.353,9.353,0,0,1,1.627,5.473,8.5,8.5,0,0,1-.7,3.47,8.068,8.068,0,0,1-1.8,2.6,5.3,5.3,0,0,1-2.324,1.355,5.8,5.8,0,0,1,2.847,1.27,8.9,8.9,0,0,1,2.44,2.934,8.766,8.766,0,0,1,1.017,4.317,11.062,11.062,0,0,1-1.859,6.32,12.63,12.63,0,0,1-5.025,4.317,16.306,16.306,0,0,1-7.32,1.58,16.376,16.376,0,0,1-7.262-1.467,14.388,14.388,0,0,1-4.735-3.583A11.818,11.818,0,0,1,40,309.828l7.959-3.837a10.406,10.406,0,0,0,1.162,2.539,8.055,8.055,0,0,0,2.149,2.257,5.187,5.187,0,0,0,3.021.9,6.258,6.258,0,0,0,3.021-.677,4.8,4.8,0,0,0,1.917-1.834,5.241,5.241,0,0,0,.7-2.709,4.246,4.246,0,0,0-.784-2.624,4.49,4.49,0,0,0-2.033-1.552,7.567,7.567,0,0,0-2.818-.508h-.755v-6.038h.988a5.575,5.575,0,0,0,2.411-.508,4.1,4.1,0,0,0,2.324-3.809,4.1,4.1,0,0,0-1.249-3.019,4.871,4.871,0,0,0-3.631-1.27,6.059,6.059,0,0,0-2.556.508,5.616,5.616,0,0,0-1.8,1.242,6.947,6.947,0,0,0-1.162,1.524,5.106,5.106,0,0,0-.523,1.326Z" transform="translate(127 238.434)" fill="#f0eff1"/>
    <path id="Trazado_21561" data-name="Trazado 21561" d="M110.266,293.947a11.966,11.966,0,0,1,5.78,1.5,12.658,12.658,0,0,1,4.415,17.662,13.477,13.477,0,0,1-5.171,4.627,15.127,15.127,0,0,1-7.145,1.693,16.338,16.338,0,0,1-7.233-1.58,12.955,12.955,0,0,1-5.171-4.6,13.136,13.136,0,0,1-1.917-7.194,17.5,17.5,0,0,1,1.539-7.759,27.644,27.644,0,0,1,3.515-5.445l9.527-11.342h10.167l-11.822,13.43a3.171,3.171,0,0,1,1.219-.677A7,7,0,0,1,110.266,293.947Zm-2.15,18.593a6.087,6.087,0,0,0,5.258-2.935,5.692,5.692,0,0,0,.842-3.019,5.408,5.408,0,0,0-.842-2.962,6.087,6.087,0,0,0-5.258-2.935,6.183,6.183,0,0,0-5.315,2.935,5.55,5.55,0,0,0-.813,2.962,5.844,5.844,0,0,0,.813,3.019,6.183,6.183,0,0,0,5.315,2.935Z" transform="translate(105.365 237.979)" fill="#f0eff1"/>
    <path id="Trazado_21562" data-name="Trazado 21562" d="M147.932,299.7a25.9,25.9,0,0,1,1.249-8.464,17.446,17.446,0,0,1,3.457-6.038,14.272,14.272,0,0,1,5-3.612,14.761,14.761,0,0,1,5.9-1.213,14.557,14.557,0,0,1,5.867,1.213,13.929,13.929,0,0,1,5,3.612,17.094,17.094,0,0,1,3.427,6.038,25.9,25.9,0,0,1,1.249,8.464,27.529,27.529,0,0,1-1.249,8.831,16.2,16.2,0,0,1-3.427,5.981,13.751,13.751,0,0,1-5,3.386,16.2,16.2,0,0,1-5.867,1.072,16.429,16.429,0,0,1-5.9-1.072,14.085,14.085,0,0,1-5-3.386,16.513,16.513,0,0,1-3.457-5.981A27.529,27.529,0,0,1,147.932,299.7Zm8.714,0a22.161,22.161,0,0,0,.843,6.659,8.3,8.3,0,0,0,2.382,3.922,5.571,5.571,0,0,0,3.66,1.269,5.459,5.459,0,0,0,3.631-1.269,8.123,8.123,0,0,0,2.353-3.922,22.335,22.335,0,0,0,.843-6.659,21.429,21.429,0,0,0-.843-6.433,8.919,8.919,0,0,0-2.353-4.063,5.134,5.134,0,0,0-3.631-1.411,5.235,5.235,0,0,0-3.66,1.411,9.126,9.126,0,0,0-2.382,4.063A21.429,21.429,0,0,0,156.646,299.7Z" transform="translate(83.616 238.434)" fill="#f0eff1"/>
  </g>
</svg>
