<svg id="mastercard" xmlns="http://www.w3.org/2000/svg" width="46.662" height="27.997" viewBox="0 0 46.662 27.997">
  <g id="Grupo_11088" data-name="Grupo 11088" transform="translate(18.665 0)">
    <g id="Grupo_11087" data-name="Grupo 11087">
      <path id="Trazado_46652" data-name="Trazado 46652" d="M53.7,27.1a14,14,0,1,1-14.073-14A13.987,13.987,0,0,1,53.7,27.1Z" transform="translate(-25.7 -13.1)" fill="#ffb600"/>
    </g>
  </g>
  <g id="Grupo_11094" data-name="Grupo 11094" transform="translate(0 0)">
    <g id="Grupo_11093" data-name="Grupo 11093">
      <path id="Trazado_46655" data-name="Trazado 46655" d="M14.35,13.1a14,14,0,0,0,.148,28A14.162,14.162,0,0,0,23.9,37.468a13.309,13.309,0,0,0,1.407-1.481H22.424a17.086,17.086,0,0,1-1.037-1.407h4.962a9.488,9.488,0,0,0,.815-1.481H20.572a8.827,8.827,0,0,1-.593-1.481h7.7a14.707,14.707,0,0,0,.741-4.444,19.118,19.118,0,0,0-.3-2.963H19.535a10.828,10.828,0,0,1,.37-1.481h7.7a8.828,8.828,0,0,0-.593-1.481H20.5a14.688,14.688,0,0,1,.815-1.481h4.962a7.043,7.043,0,0,0-1.111-1.481h-2.74a12.624,12.624,0,0,1,1.407-1.407,13.667,13.667,0,0,0-9.406-3.629c0-.148,0-.148-.074-.148Z" transform="translate(-0.5 -13.1)" fill="#ff5050"/>
    </g>
  </g>
  <g id="Grupo_11119" data-name="Grupo 11119" transform="translate(1.333 10.369)">
    <g id="Grupo_11100" data-name="Grupo 11100" transform="translate(15.48 0.667)">
      <g id="Grupo_11099" data-name="Grupo 11099">
        <path id="Trazado_46658" data-name="Trazado 46658" d="M25.348,34.518l.222-1.259a3.208,3.208,0,0,1-.37.074c-.518,0-.593-.3-.518-.444l.444-2.592h.815l.222-1.407h-.741L25.57,28H24.089s-.889,4.888-.889,5.481a1.112,1.112,0,0,0,1.185,1.259A2.274,2.274,0,0,0,25.348,34.518Z" transform="translate(-23.2 -28)" fill="#fff"/>
      </g>
    </g>
    <g id="Grupo_11102" data-name="Grupo 11102" transform="translate(18.146 1.472)">
      <g id="Grupo_11101" data-name="Grupo 11101">
        <path id="Trazado_46659" data-name="Trazado 46659" d="M26.8,32.43a2.356,2.356,0,0,0,2.592,2.592,3.845,3.845,0,0,0,1.555-.222l.3-1.407a4.44,4.44,0,0,1-1.555.37c-1.629,0-1.333-1.185-1.333-1.185h3.037a9.6,9.6,0,0,0,.222-1.333A2.007,2.007,0,0,0,29.466,29.1C27.911,28.949,26.8,30.578,26.8,32.43Zm2.592-2.148c.815,0,.667.963.667,1.037H28.429C28.429,31.245,28.578,30.282,29.392,30.282Z" transform="translate(-26.8 -29.087)" fill="#fff"/>
      </g>
    </g>
    <g id="Grupo_11104" data-name="Grupo 11104" transform="translate(26.071)">
      <g id="Grupo_11103" data-name="Grupo 11103">
        <path id="Trazado_46660" data-name="Trazado 46660" d="M41.574,34.284l.3-1.629a3.64,3.64,0,0,1-1.259.37c-1.037,0-1.481-.815-1.481-1.7,0-1.778.889-2.74,1.926-2.74a2.473,2.473,0,0,1,1.333.444l.222-1.555a5.208,5.208,0,0,0-1.7-.37c-1.7,0-3.407,1.481-3.407,4.3,0,1.852.889,3.111,2.666,3.111A6.647,6.647,0,0,0,41.574,34.284Z" transform="translate(-37.5 -27.1)" fill="#fff"/>
      </g>
    </g>
    <g id="Grupo_11106" data-name="Grupo 11106" transform="translate(6.666 1.333)">
      <g id="Grupo_11105" data-name="Grupo 11105">
        <path id="Trazado_46661" data-name="Trazado 46661" d="M14.115,28.9a5.246,5.246,0,0,0-1.778.3l-.222,1.259a4.378,4.378,0,0,1,1.629-.3c.518,0,.963.074.963.518,0,.3-.074.37-.074.37h-.667c-1.259,0-2.666.518-2.666,2.222,0,1.333.889,1.629,1.407,1.629a2.225,2.225,0,0,0,1.555-.667l-.074.593h1.333l.593-4.074a1.755,1.755,0,0,0-2-1.852Zm.3,3.333c0,.222-.148,1.407-1.037,1.407a.578.578,0,0,1-.593-.593c0-.37.222-.889,1.333-.889A1.168,1.168,0,0,0,14.411,32.233Z" transform="translate(-11.3 -28.9)" fill="#fff"/>
      </g>
    </g>
    <g id="Grupo_11108" data-name="Grupo 11108" transform="translate(11.184 1.259)">
      <g id="Grupo_11107" data-name="Grupo 11107" transform="translate(0)">
        <path id="Trazado_46662" data-name="Trazado 46662" d="M19.1,34.873a1.9,1.9,0,0,0,2.222-1.926c0-1.852-1.778-1.481-1.778-2.222,0-.37.3-.518.815-.518.222,0,1.037.074,1.037.074l.222-1.333a5.626,5.626,0,0,0-1.407-.148c-1.111,0-2.222.444-2.222,1.926,0,1.7,1.852,1.555,1.852,2.222,0,.444-.518.518-.889.518a4.844,4.844,0,0,1-1.333-.222L17.4,34.577c.074.148.444.3,1.7.3Z" transform="translate(-17.4 -28.8)" fill="#fff"/>
      </g>
    </g>
    <g id="Grupo_11110" data-name="Grupo 11110" transform="translate(38.218 0.148)">
      <g id="Grupo_11109" data-name="Grupo 11109">
        <path id="Trazado_46663" data-name="Trazado 46663" d="M58.122,27.3l-.3,2a2.054,2.054,0,0,0-1.407-.741c-1.333,0-2.518,1.629-2.518,3.555,0,1.185.593,2.444,1.852,2.444a1.977,1.977,0,0,0,1.407-.593l-.074.518h1.481l1.111-7.11Zm-.667,3.925c0,.815-.37,1.852-1.185,1.852-.518,0-.815-.444-.815-1.185,0-1.185.518-1.926,1.185-1.926C57.159,29.966,57.455,30.337,57.455,31.225Z" transform="translate(-53.9 -27.3)" fill="#fff"/>
      </g>
    </g>
    <g id="Grupo_11112" data-name="Grupo 11112" transform="translate(0 0.148)">
      <g id="Grupo_11111" data-name="Grupo 11111">
        <path id="Trazado_46664" data-name="Trazado 46664" d="M3.707,34.41,4.6,29.078l.148,5.333H5.781l1.926-5.333L6.892,34.41H8.447L9.633,27.3H7.188L5.707,31.67,5.633,27.3H3.485L2.3,34.41Z" transform="translate(-2.3 -27.3)" fill="#fff"/>
      </g>
    </g>
    <g id="Grupo_11114" data-name="Grupo 11114" transform="translate(22.738 1.481)">
      <g id="Grupo_11113" data-name="Grupo 11113">
        <path id="Trazado_46665" data-name="Trazado 46665" d="M34.629,34.877c.444-2.444.518-4.444,1.555-4.074a5.813,5.813,0,0,1,.518-1.7h-.3c-.667,0-1.185.889-1.185.889l.148-.815H33.963L33,34.951h1.629Z" transform="translate(-33 -29.1)" fill="#fff"/>
      </g>
    </g>
    <g id="Grupo_11116" data-name="Grupo 11116" transform="translate(30.737 1.333)">
      <g id="Grupo_11115" data-name="Grupo 11115">
        <path id="Trazado_46666" data-name="Trazado 46666" d="M46.615,28.9a5.246,5.246,0,0,0-1.778.3l-.222,1.259a4.378,4.378,0,0,1,1.629-.3c.518,0,.963.074.963.518,0,.3-.074.37-.074.37h-.667c-1.259,0-2.666.518-2.666,2.222,0,1.333.889,1.629,1.407,1.629a2.225,2.225,0,0,0,1.555-.667l-.074.593h1.333l.593-4.074a1.729,1.729,0,0,0-2-1.852Zm.37,3.333c0,.222-.148,1.407-1.037,1.407a.578.578,0,0,1-.593-.593c0-.37.222-.889,1.333-.889C46.911,32.233,46.911,32.233,46.985,32.233Z" transform="translate(-43.8 -28.9)" fill="#fff"/>
      </g>
    </g>
    <g id="Grupo_11118" data-name="Grupo 11118" transform="translate(35.181 1.481)">
      <g id="Grupo_11117" data-name="Grupo 11117">
        <path id="Trazado_46667" data-name="Trazado 46667" d="M51.429,34.877c.444-2.444.518-4.444,1.555-4.074a5.813,5.813,0,0,1,.518-1.7h-.3c-.667,0-1.185.889-1.185.889l.148-.815H50.763L49.8,34.951h1.629Z" transform="translate(-49.8 -29.1)" fill="#fff"/>
      </g>
    </g>
  </g>
</svg>
