<svg id="paypal" xmlns="http://www.w3.org/2000/svg" width="49.554" height="31.298" viewBox="0 0 49.554 31.298">
  <path id="Trazado_46640" data-name="Trazado 46640" d="M49.554,108.066a2.814,2.814,0,0,1-2.929,2.683H2.929A2.814,2.814,0,0,1,0,108.066V82.134a2.814,2.814,0,0,1,2.929-2.683h43.7a2.814,2.814,0,0,1,2.929,2.683v25.933Z" transform="translate(0 -79.451)" fill="#92dbef"/>
  <path id="Trazado_46642" data-name="Trazado 46642" d="M164.449,130.942c-.995-1.137-2.842-1.7-5.4-1.7h-7.1a1.219,1.219,0,0,0-.995.852L148.11,148.7a.65.65,0,0,0,.568.71h4.4l1.137-6.961v.284a1.218,1.218,0,0,1,.995-.852h2.131c4.12,0,7.245-1.7,8.24-6.394v-.426h0a4.963,4.963,0,0,0-1.136-4.12" transform="translate(-130.812 -124.824)" fill="#263b80"/>
  <path id="Trazado_46643" data-name="Trazado 46643" d="M228.394,186.59v-.426c0-.014,0-.027,0-.041a4.022,4.022,0,0,0-.67-.378,6.292,6.292,0,0,0-2.152-.434l0,0H223.5l0,0h-4.346a1.027,1.027,0,0,0-1,.882l-1.133,7.359v.284a1.218,1.218,0,0,1,.995-.852h2.131C224.274,192.984,227.4,191.279,228.394,186.59Z" transform="translate(-193.621 -175.927)" fill="#232c65"/>
  <path id="Trazado_46644" data-name="Trazado 46644" d="M214.739,196.284a3.715,3.715,0,0,0-1.393-1.8c0,.014,0,.027,0,.041v.426c-.995,4.689-4.12,6.394-8.24,6.394h-2.131a1.218,1.218,0,0,0-.995.852v-.11c-.016.036-.031.073-.043.11l-.8,4.9-.291,1.78h0l-.326,1.989a.52.52,0,0,0,.568.568h3.541a1,1,0,0,0,1.005-.853l.03-.186h0l.68-4.218a1.076,1.076,0,0,1,1.059-.994h.362c3.552,0,6.393-1.42,7.1-5.682A6.7,6.7,0,0,0,214.739,196.284Z" transform="translate(-178.57 -184.286)" fill="#139ad6"/>
</svg>
