<svg id="pin" xmlns="http://www.w3.org/2000/svg" width="17.152" height="17.152" viewBox="0 0 17.152 17.152">
  <path id="Trazado_29357" data-name="Trazado 29357" d="M17.38,5.764A6.064,6.064,0,0,0,8.8,14.34l3.766,3.773a.716.716,0,0,0,1.015,0L17.38,14.3A6.039,6.039,0,0,0,17.38,5.764Zm-1.022,7.518-3.266,3.28-3.266-3.28a4.616,4.616,0,1,1,6.532,0Zm-5.41-5.424a3.082,3.082,0,1,0,5.26,2.215,3.027,3.027,0,0,0-.9-2.18,3.071,3.071,0,0,0-4.359-.036ZM14.3,11.2a.688.688,0,1,0-.036,0Z" transform="translate(-4.516 -2.563)" fill="currentColor"/>
  <path id="Trazado_29358" data-name="Trazado 29358" d="M0,0H17.152V17.152H0Z" fill="none"/>
</svg>
