<svg xmlns="http://www.w3.org/2000/svg" width="17.384" height="12.496" viewBox="0 0 17.384 12.496">
  <path id="Unión_120" data-name="Unión 120" d="M.572,12.2A.594.594,0,0,1,0,11.586V.609A.593.593,0,0,1,.572,0H16.511a.594.594,0,0,1,.573.609V11.586a.6.6,0,0,1-.573.61Zm.573-1.22H15.938V1.22H1.146ZM5.9,7.9V4.3a1.265,1.265,0,0,1,.58-1.087,1.105,1.105,0,0,1,1.174,0l3,1.833v.03A1.29,1.29,0,0,1,10.6,7.189L7.658,8.983a1.119,1.119,0,0,1-.585.167A1.211,1.211,0,0,1,5.9,7.9ZM6.921,4.013a.327.327,0,0,0-.149.278V7.9a.326.326,0,0,0,.151.279.3.3,0,0,0,.3,0l3-1.859a.336.336,0,0,0,.088-.227.327.327,0,0,0-.152-.279L7.225,4.012a.288.288,0,0,0-.3,0Z" transform="translate(0.15 0.15)" fill="#f42eb2" stroke="#f42eb2" stroke-width="0.3"/>
</svg>
