<svg id="profesion" xmlns="http://www.w3.org/2000/svg" width="14.43" height="14.43" viewBox="0 0 14.43 14.43">
  <path id="Trazado_46613" data-name="Trazado 46613" d="M14.221,7.4h-1.8V6.8a1.805,1.805,0,0,0-1.8-1.8h-1.2a1.805,1.805,0,0,0-1.8,1.8v.6H5.8A1.805,1.805,0,0,0,4,9.209V14.62a1.805,1.805,0,0,0,1.8,1.8h8.417a1.805,1.805,0,0,0,1.8-1.8V9.209A1.805,1.805,0,0,0,14.221,7.4ZM8.81,6.8a.6.6,0,0,1,.6-.6h1.2a.6.6,0,0,1,.6.6v.6H8.81Zm6.012,7.816a.6.6,0,0,1-.6.6H5.8a.6.6,0,0,1-.6-.6V11.313a13.064,13.064,0,0,0,1.8.565v.355a.6.6,0,0,0,1.2,0v-.126a13.916,13.916,0,0,0,1.8.126,13.916,13.916,0,0,0,1.8-.126v.126a.6.6,0,0,0,1.2,0v-.355a13.064,13.064,0,0,0,1.8-.565Zm0-4.624a12.324,12.324,0,0,1-1.8.6v-.186a.6.6,0,1,0-1.2,0v.445a12.092,12.092,0,0,1-3.607,0v-.445a.6.6,0,1,0-1.2,0v.2a12.324,12.324,0,0,1-1.8-.6v-.8a.6.6,0,0,1,.6-.6h8.417a.6.6,0,0,1,.6.6Z" transform="translate(-2.798 -3.497)" fill="#62646e"/>
  <path id="Trazado_46614" data-name="Trazado 46614" d="M0,0H14.43V14.43H0Z" fill="none"/>
</svg>
