<svg id="shopping_bag" data-name="shopping bag" xmlns="http://www.w3.org/2000/svg" width="16.868" height="16.868" viewBox="0 0 16.868 16.868">
  <path id="Trazado_31650" data-name="Trazado 31650" d="M18.542,7.514H16.434v-.7a2.811,2.811,0,1,0-5.623,0v.7H8.7a.7.7,0,0,0-.7.7v7.731a2.11,2.11,0,0,0,2.108,2.108h7.028a2.11,2.11,0,0,0,2.108-2.108V8.217A.7.7,0,0,0,18.542,7.514Zm-6.325-.7a1.406,1.406,0,0,1,2.811,0v.7H12.217Zm5.623,9.137a.7.7,0,0,1-.7.7H10.108a.7.7,0,0,1-.7-.7V8.92h1.406v.7a.7.7,0,0,0,1.406,0v-.7h2.811v.7a.7.7,0,0,0,1.406,0v-.7H17.84Z" transform="translate(-5.189 -2.594)" fill="#f42eb2"/>
  <path id="Trazado_31651" data-name="Trazado 31651" d="M0,0H16.868V16.868H0Z" fill="none"/>
</svg>
