<svg id="sign_out_alt" data-name="sign out alt" xmlns="http://www.w3.org/2000/svg" width="17.828" height="17.828" viewBox="0 0 17.828 17.828">
  <path id="Trazado_31640" data-name="Trazado 31640" d="M11.867,12.171l-1.709,1.7a.746.746,0,1,0,1.055,1.055l2.971-2.971a.767.767,0,0,0,.156-.245.743.743,0,0,0,0-.565.767.767,0,0,0-.156-.245L11.213,7.93a.746.746,0,0,0-1.055,1.055l1.709,1.7H4.743a.743.743,0,0,0,0,1.486ZM11.428,4A7.427,7.427,0,0,0,4.743,8.123a.747.747,0,0,0,1.337.669,5.973,5.973,0,1,1,.03,5.274.747.747,0,0,0-1.337.669A7.429,7.429,0,1,0,11.428,4Z" transform="translate(-2.514 -2.514)" fill="#f42eb2"/>
  <path id="Trazado_31641" data-name="Trazado 31641" d="M0,0H17.828V17.828H0Z" fill="none"/>
</svg>
