<svg id="tag_alt" data-name="tag alt" xmlns="http://www.w3.org/2000/svg" width="14.54" height="14.54" viewBox="0 0 14.54 14.54">
  <path id="Trazado_46623" data-name="Trazado 46623" d="M7.332,6.423a.909.909,0,1,0,.909.909A.908.908,0,0,0,7.332,6.423Zm8.252,2.854-5.1-5.1A.618.618,0,0,0,10.058,4H4.606A.608.608,0,0,0,4,4.606v5.453a.618.618,0,0,0,.176.43l5.1,5.1a1.817,1.817,0,0,0,2.569,0l3.738-3.708a1.817,1.817,0,0,0,0-2.569Zm-.854,1.708h0l-3.744,3.738a.6.6,0,0,1-.854,0L5.212,9.81v-4.6h4.6l4.919,4.919a.618.618,0,0,1,.176.43A.6.6,0,0,1,14.73,10.985Z" transform="translate(-2.788 -2.788)" fill="#62646e"/>
  <path id="Trazado_46624" data-name="Trazado 46624" d="M0,0H14.54V14.54H0Z" fill="none"/>
</svg>
