<svg id="trash_alt" data-name="trash alt" xmlns="http://www.w3.org/2000/svg" width="15.533" height="15.533" viewBox="0 0 15.533 15.533">
  <path id="Trazado_31642" data-name="Trazado 31642" d="M10.531,14.355a.649.649,0,0,0,.647-.647V9.825a.647.647,0,0,0-1.294,0v3.883A.649.649,0,0,0,10.531,14.355ZM17,6.589H14.414V5.942A1.943,1.943,0,0,0,12.472,4H11.178A1.943,1.943,0,0,0,9.236,5.942v.647H6.647a.647.647,0,1,0,0,1.294h.647V15a1.943,1.943,0,0,0,1.942,1.942h5.178A1.943,1.943,0,0,0,16.355,15V7.883H17a.647.647,0,1,0,0-1.294Zm-6.472-.647a.649.649,0,0,1,.647-.647h1.294a.649.649,0,0,1,.647.647v.647H10.531ZM15.061,15a.649.649,0,0,1-.647.647H9.236A.649.649,0,0,1,8.589,15V7.883h6.472Zm-1.942-.647a.649.649,0,0,0,.647-.647V9.825a.647.647,0,0,0-1.294,0v3.883A.649.649,0,0,0,13.119,14.355Z" transform="translate(-4.058 -2.706)" fill="currentColor"/>
  <path id="Trazado_31643" data-name="Trazado 31643" d="M0,0H15.533V15.533H0Z" fill="none"/>
</svg>
