<svg id="user_square" data-name="user square" xmlns="http://www.w3.org/2000/svg" width="16.476" height="16.476" viewBox="0 0 16.476 16.476">
  <path id="Trazado_31656" data-name="Trazado 31656" d="M12.794,11.057a2.551,2.551,0,0,0,.687-1.716,2.6,2.6,0,1,0-5.19,0,2.551,2.551,0,0,0,.687,1.716,4.081,4.081,0,0,0-2.231,3.165.691.691,0,0,0,1.373.151,2.746,2.746,0,0,1,5.451,0,.686.686,0,0,0,.728.611h.076a.687.687,0,0,0,.6-.755A4.078,4.078,0,0,0,12.794,11.057Zm-1.929-.494a1.222,1.222,0,1,1,1.222-1.222A1.22,1.22,0,0,1,10.865,10.563ZM15.671,4H6.06A2.061,2.061,0,0,0,4,6.06v9.611a2.061,2.061,0,0,0,2.06,2.06h9.611a2.061,2.061,0,0,0,2.06-2.06V6.06A2.061,2.061,0,0,0,15.671,4Zm.687,11.671a.689.689,0,0,1-.687.687H6.06a.689.689,0,0,1-.687-.687V6.06a.689.689,0,0,1,.687-.687h9.611a.689.689,0,0,1,.687.687Z" transform="translate(-2.627 -2.627)" fill="#f42eb2"/>
  <path id="Trazado_31657" data-name="Trazado 31657" d="M0,0H16.476V16.476H0Z" fill="none"/>
</svg>
