<svg xmlns="http://www.w3.org/2000/svg" width="11.058" height="11.91" viewBox="0 0 11.058 11.91">
  <path id="user" d="M10.208,11.91H.85a.83.83,0,0,1-.644-.3.937.937,0,0,1-.189-.774A4.556,4.556,0,0,1,2.041,7.814,6.338,6.338,0,0,1,5.528,6.805,6.356,6.356,0,0,1,9.016,7.814a4.556,4.556,0,0,1,2.025,3.026.939.939,0,0,1-.191.774.827.827,0,0,1-.634.3Zm-7.435-8.9A2.794,2.794,0,0,1,3.488.861,2.742,2.742,0,0,1,5.528,0,2.738,2.738,0,0,1,7.565.864a2.812,2.812,0,0,1,.719,2.144A3.028,3.028,0,0,1,5.528,5.955,3.028,3.028,0,0,1,2.773,3.008Z" fill="currentColor"/>
</svg>
