<svg xmlns="http://www.w3.org/2000/svg" width="14.871" height="14.871" viewBox="0 0 14.871 14.871">
  <g id="user-gris" transform="translate(0)">
    <path id="Trazado_46617" data-name="Trazado 46617" d="M12.583,10.629a3.718,3.718,0,1,0-4.6,0A6.191,6.191,0,0,0,4.132,15.7a.623.623,0,1,0,1.239.136,4.957,4.957,0,0,1,9.852,0,.618.618,0,0,0,.62.551h.068a.62.62,0,0,0,.545-.682A6.2,6.2,0,0,0,12.583,10.629Zm-2.3-.44a2.478,2.478,0,1,1,2.478-2.478A2.478,2.478,0,0,1,10.284,10.189Z" transform="translate(-2.849 -2.754)" fill="#62646e"/>
    <path id="Trazado_46618" data-name="Trazado 46618" d="M0,0H14.871V14.871H0Z" transform="translate(0)" fill="none"/>
  </g>
</svg>
