<svg id="visa" xmlns="http://www.w3.org/2000/svg" width="49.635" height="31.298" viewBox="0 0 49.635 31.298">
  <path id="Trazado_46645" data-name="Trazado 46645" d="M49.635,124.085a1.841,1.841,0,0,1-1.841,1.841H1.841A1.841,1.841,0,0,1,0,124.085V96.469a1.841,1.841,0,0,1,1.841-1.841H47.794a1.841,1.841,0,0,1,1.841,1.841v27.616Z" transform="translate(0 -94.628)" fill="#21246e"/>
  <path id="Trazado_46646" data-name="Trazado 46646" d="M45.392,185.931,39.87,199.109h-3.6l-2.716-10.516a1.457,1.457,0,0,0-.811-1.16,14.326,14.326,0,0,0-3.365-1.12l.083-.383h5.8a1.589,1.589,0,0,1,1.572,1.344l1.436,7.627,3.547-8.971h3.582ZM59.512,194.8c.016-3.476-4.81-3.665-4.775-5.221.009-.475.459-.977,1.445-1.1a6.434,6.434,0,0,1,3.362.588l.6-2.793a9.163,9.163,0,0,0-3.189-.583c-3.369,0-5.741,1.792-5.761,4.356-.022,1.9,1.692,2.954,2.985,3.586,1.328.646,1.772,1.059,1.767,1.638-.009.885-1.059,1.271-2.04,1.288a7.134,7.134,0,0,1-3.5-.833l-.617,2.889a10.4,10.4,0,0,0,3.792.7c3.581,0,5.924-1.773,5.935-4.513m8.9,4.3h3.154l-2.752-13.178H65.9a1.555,1.555,0,0,0-1.451.966l-5.112,12.212h3.578l.71-1.968H68Zm-3.8-4.669,1.8-4.948,1.033,4.948Zm-14.341-8.509-2.821,13.178h-3.41l2.821-13.178h3.409Z" transform="translate(-26.527 -176.868)" fill="#fff"/>
</svg>
