<svg xmlns="http://www.w3.org/2000/svg" xmlns:xlink="http://www.w3.org/1999/xlink" width="152" height="152" viewBox="0 0 152 152">
  <defs>
    <clipPath id="clip-path">
      <circle id="Elipse_508" data-name="Elipse 508" cx="76" cy="76" r="76" transform="translate(784 523)" fill="#1a1a1a"/>
    </clipPath>
  </defs>
  <g id="behance" transform="translate(-784 -523)">
    <circle id="Elipse_516" data-name="Elipse 516" cx="76" cy="76" r="76" transform="translate(784 523)" fill="#1a1a1a"/>
    <g id="Enmascarar_grupo_3" data-name="Enmascarar grupo 3" clip-path="url(#clip-path)">
      <g id="b20bf41e6cfe455" transform="translate(817.5 572.123)">
        <path id="Trazado_31612" data-name="Trazado 31612" d="M24.989,0a26.386,26.386,0,0,1,6.86.754,15.131,15.131,0,0,1,5.351,2.1A8.821,8.821,0,0,1,40.643,6.86,15.329,15.329,0,0,1,41.8,12.966a10.605,10.605,0,0,1-1.91,6.672,13.611,13.611,0,0,1-5.351,4.385,12.593,12.593,0,0,1,7.237,4.951,15.749,15.749,0,0,1,.943,15.253,12.435,12.435,0,0,1-4.2,4.762,19.425,19.425,0,0,1-6.106,2.664,28.619,28.619,0,0,1-6.86.943L0,52.642V0ZM23.457,21.359A8.528,8.528,0,0,0,28.6,19.826c1.32-.967,1.91-2.664,1.91-4.762a7.221,7.221,0,0,0-.566-3.041,5.268,5.268,0,0,0-1.721-1.91,9.646,9.646,0,0,0-2.475-.943A15.489,15.489,0,0,0,22.7,8.982H11.646v12.4C11.646,21.359,23.457,21.359,23.457,21.359Zm.566,22.514a17.117,17.117,0,0,0,3.253-.377A6.431,6.431,0,0,0,29.94,42.34a7.169,7.169,0,0,0,1.91-2.1A9.157,9.157,0,0,0,32.6,36.8c0-2.664-.754-4.573-2.287-5.917a10.019,10.019,0,0,0-6.106-1.721H11.646V43.849H24.023Z" fill="#fff"/>
        <path id="Trazado_31613" data-name="Trazado 31613" d="M37.917,41.951c1.532,1.532,3.819,2.287,6.86,2.287a10.364,10.364,0,0,0,5.54-1.532,7.547,7.547,0,0,0,2.853-3.442h9.336c-1.532,4.573-3.819,7.827-6.86,9.925A20.307,20.307,0,0,1,44.588,52.23a22.2,22.2,0,0,1-8.2-1.532,15.179,15.179,0,0,1-6.106-4.2,15.309,15.309,0,0,1-3.819-6.294A22.616,22.616,0,0,1,25.116,32a21.861,21.861,0,0,1,1.344-8.015A20.792,20.792,0,0,1,30.467,17.5a19.207,19.207,0,0,1,6.106-4.2,21.574,21.574,0,0,1,8.015-1.532,17.649,17.649,0,0,1,8.581,1.91,15.64,15.64,0,0,1,5.917,5.139,23.33,23.33,0,0,1,3.442,7.237,40.481,40.481,0,0,1,.377,8.393H35.253A10.981,10.981,0,0,0,37.917,41.951ZM49.94,21.913a8.257,8.257,0,0,0-5.917-2.1,9.2,9.2,0,0,0-4.2.943,9.732,9.732,0,0,0-2.664,2.1,5.137,5.137,0,0,0-1.344,2.664,13.2,13.2,0,0,0-.377,2.475H52.6A10.225,10.225,0,0,0,49.94,21.913ZM33.155,1.9H54.513V7.037H33.155Z" transform="translate(22.929 1.733)" fill="#fff"/>
      </g>
    </g>
  </g>
</svg>
