<svg xmlns="http://www.w3.org/2000/svg" xmlns:xlink="http://www.w3.org/1999/xlink" width="152" height="152" viewBox="0 0 152 152">
  <defs>
    <clipPath id="clip-path">
      <circle id="Elipse_504" data-name="Elipse 504" cx="76" cy="76" r="76" transform="translate(995 318)" fill="#1a1a1a"/>
    </clipPath>
  </defs>
  <g id="dribbble" transform="translate(-995 -318)" clip-path="url(#clip-path)">
    <g id="ef165b62c0124d5" transform="translate(995 318)">
      <rect id="Rectángulo_18972" data-name="Rectángulo 18972" width="152" height="152" fill="rgba(0,0,0,0)"/>
      <circle id="Elipse_515" data-name="Elipse 515" cx="72.96" cy="72.96" r="72.96" transform="translate(3.04 3.04)" fill="#ea4c89"/>
      <path id="Trazado_31611" data-name="Trazado 31611" d="M76,0a76,76,0,1,0,76,76A76.022,76.022,0,0,0,76,0Zm50.2,35.033a64.618,64.618,0,0,1,14.673,40.39c-2.143-.412-23.575-4.781-45.171-2.061-.495-1.071-.907-2.226-1.4-3.38-1.319-3.132-2.8-6.347-4.286-9.4C113.918,50.859,124.8,36.846,126.2,35.033ZM76,11.21a64.769,64.769,0,0,1,43.028,16.321c-1.154,1.649-10.963,14.755-34.043,23.41a350.457,350.457,0,0,0-24.234-38A66.015,66.015,0,0,1,76,11.21Zm-27.614,6.1A409.633,409.633,0,0,1,72.456,54.816a243.447,243.447,0,0,1-60.009,7.913A65.217,65.217,0,0,1,48.386,17.31ZM11.046,76.082V74.1c2.8.082,34.291.495,66.685-9.232,1.9,3.627,3.627,7.336,5.275,11.046-.824.247-1.731.495-2.555.742C46.985,87.458,29.18,116.967,27.7,119.44A64.765,64.765,0,0,1,11.046,76.082ZM76,140.954a64.462,64.462,0,0,1-39.814-13.683c1.154-2.39,14.343-27.779,50.941-40.555.165-.082.247-.082.412-.165a268.346,268.346,0,0,1,13.848,49.21A63.845,63.845,0,0,1,76,140.954Zm36.187-11.128A279.291,279.291,0,0,0,99.575,83.584a94.8,94.8,0,0,1,40.39,2.8A64.358,64.358,0,0,1,112.187,129.827Z" fill="#c32361" fill-rule="evenodd"/>
    </g>
  </g>
</svg>
