<svg xmlns="http://www.w3.org/2000/svg" xmlns:xlink="http://www.w3.org/1999/xlink" width="152" height="152" viewBox="0 0 152 152">
  <defs>
    <clipPath id="clip-path">
      <circle id="Elipse_505" data-name="Elipse 505" cx="76" cy="76" r="76" transform="translate(1206 318)" fill="#1a1a1a"/>
    </clipPath>
  </defs>
  <g id="facebook" transform="translate(-1206 -318)" clip-path="url(#clip-path)">
    <g id="g10" transform="translate(1206 470)">
      <g id="g12">
        <path id="path14" d="M152-76a76,76,0,0,0-76-76A76,76,0,0,0,0-76,76.019,76.019,0,0,0,64.125-.923V-54.031h-19.3V-76h19.3V-92.744c0-19.048,11.346-29.569,28.706-29.569a116.873,116.873,0,0,1,17.012,1.484v18.7H100.26c-9.441,0-12.385,5.858-12.385,11.869V-76h21.078l-3.37,21.969H87.875V-.923A76.019,76.019,0,0,0,152-76" fill="#1877f2"/>
        <path id="path16" d="M105.584-54.031,108.953-76H87.875V-90.256c0-6.01,2.944-11.869,12.385-11.869h9.583v-18.7a116.873,116.873,0,0,0-17.012-1.484c-17.36,0-28.706,10.521-28.706,29.569V-76h-19.3v21.969h19.3V-.923A76.572,76.572,0,0,0,76,0,76.572,76.572,0,0,0,87.875-.923V-54.031h17.709" fill="#fff"/>
      </g>
    </g>
  </g>
</svg>
