<svg xmlns="http://www.w3.org/2000/svg" xmlns:xlink="http://www.w3.org/1999/xlink" width="152" height="152" viewBox="0 0 152 152">
  <defs>
    <clipPath id="clip-path">
      <circle id="Elipse_510" data-name="Elipse 510" cx="76" cy="76" r="76" transform="translate(995 728)" fill="#1a1a1a"/>
    </clipPath>
  </defs>
  <g id="pinterest" transform="translate(-995 -728)" clip-path="url(#clip-path)">
    <g id="art" transform="translate(995.063 728)">
      <g id="Grupo_11068" data-name="Grupo 11068">
        <circle id="Elipse_531" data-name="Elipse 531" cx="75.938" cy="75.938" r="75.938" fill="#fff"/>
        <g id="Grupo_11067" data-name="Grupo 11067">
          <path id="Trazado_37641" data-name="Trazado 37641" d="M75.938,0A75.961,75.961,0,0,0,48.25,146.688c-.687-6-1.25-15.25.25-21.813,1.375-5.938,8.875-37.75,8.875-37.75a27.661,27.661,0,0,1-2.25-11.25c0-10.562,6.125-18.437,13.75-18.437,6.5,0,9.625,4.875,9.625,10.688,0,6.5-4.125,16.25-6.312,25.313C70.375,101,76,107.188,83.438,107.188c13.5,0,23.875-14.25,23.875-34.75,0-18.187-13.062-30.875-31.75-30.875C53.938,41.563,41.25,57.75,41.25,74.5c0,6.5,2.5,13.5,5.625,17.313a2.261,2.261,0,0,1,.5,2.188c-.563,2.375-1.875,7.562-2.125,8.625-.312,1.375-1.125,1.688-2.562,1-9.5-4.438-15.438-18.25-15.438-29.438,0-23.937,17.375-45.938,50.188-45.938,26.312,0,46.813,18.75,46.813,43.875,0,26.188-16.5,47.25-39.375,47.25-7.688,0-14.938-4-17.375-8.75,0,0-3.812,14.5-4.75,18.063-1.687,6.625-6.312,14.875-9.437,19.937A76.005,76.005,0,1,0,75.938,0Z" fill="#e60023"/>
        </g>
      </g>
    </g>
  </g>
</svg>
