<svg xmlns="http://www.w3.org/2000/svg" xmlns:xlink="http://www.w3.org/1999/xlink" width="152" height="152" viewBox="0 0 152 152">
  <defs>
    <clipPath id="clip-path">
      <circle id="soundcloud-logo-soundcloud-icon-transparent-png-1" cx="76" cy="76" r="76" transform="translate(1206 728)" fill="#e1b0b0"/>
    </clipPath>
  </defs>
  <g id="soundcloud" transform="translate(-1206 -728)" clip-path="url(#clip-path)">
    <g id="soundcloud-tile" transform="translate(1206 728)">
      <rect id="Rectángulo_18975" data-name="Rectángulo 18975" width="152" height="152" rx="22.8" fill="#f50"/>
      <path id="Trazado_37643" data-name="Trazado 37643" d="M17.516,80.156l-.891,6.531.891,6.531a.445.445,0,0,0,.891,0l.891-6.531-.891-6.531C18.406,79.266,17.516,79.266,17.516,80.156ZM22.859,76c0-.891-.891-.891-.891,0L20.484,86.688l1.188,10.391a.6.6,0,1,0,1.188,0l1.188-10.391Zm17.516-8.906-.891,19.594.594,11.875c0,2.375,2.078,2.375,2.078,0l1.188-11.875L42.156,67.094C42.156,65.609,40.375,65.609,40.375,67.094Zm-9.2,6.531L29.984,86.688l.891,11.875c0,1.781,1.484,1.781,1.484,0l1.188-11.875L32.359,73.625A.6.6,0,1,0,31.172,73.625ZM51.953,98.563l.891-11.875-.891-26.125c0-1.781-2.078-1.781-2.078,0l-.891,26.125.594,11.875C49.578,100.938,51.953,100.938,51.953,98.563Zm20.188,0,.594-11.875-.594-30.281a1.486,1.486,0,1,0-2.969,0l-.594,30.281.594,11.875C69.172,100.938,72.141,100.938,72.141,98.563Zm-10.094,0,.891-11.875-.891-26.422a1.336,1.336,0,0,0-2.672,0l-.594,26.422.594,11.875C59.375,100.938,62.047,100.938,62.047,98.563Zm-24.641,0L38.3,86.688l-.891-12.172c0-.891-1.781-.891-1.781,0l-.891,12.172.891,11.875C35.625,100.641,37.406,100.641,37.406,98.563Zm-9.8,0L28.8,86.688,27.609,73.922a.6.6,0,1,0-1.187,0L25.234,86.688l1.188,11.875C26.422,99.75,27.609,99.75,27.609,98.563ZM64.422,61.453l-.594,25.234.3,11.875c0,2.375,2.969,2.375,2.969,0l.594-11.875-.594-25.234A1.352,1.352,0,1,0,64.422,61.453ZM47.2,98.563l.891-11.875L47.2,62.641c0-1.781-2.078-1.781-2.078,0l-.891,24.047.594,11.875C44.828,100.938,47.2,100.938,47.2,98.563Zm9.8,0,.891-11.875L57,59.672a1.2,1.2,0,1,0-2.375,0l-.891,27.016.891,11.875C54.625,100.938,57,100.938,57,98.563Zm58.188-26.422A25.811,25.811,0,0,0,80.156,50.469c-1.187.594-1.484.891-1.484,1.781V98.563a1.662,1.662,0,0,0,1.484,1.781h40.672A14.57,14.57,0,0,0,135.375,85.8C135.375,74.813,124.984,68.875,115.188,72.141ZM74.219,53.734l-.891,32.953.891,11.875c0,2.375,2.969,2.375,2.969,0l.891-11.875-.891-32.953A1.486,1.486,0,1,0,74.219,53.734Z" fill="#fff"/>
    </g>
  </g>
</svg>
