<svg xmlns="http://www.w3.org/2000/svg" width="152" height="152" viewBox="0 0 152 152">
  <g id="spotify" transform="translate(-1023 -318)">
    <circle id="Elipse_503" data-name="Elipse 503" cx="76" cy="76" r="76" transform="translate(1023 318)" fill="#1a1a1a"/>
    <path id="c284fe2780fd431" d="M76.253.277a76,76,0,1,0,76,76,76,76,0,0,0-76-76v0Zm34.853,109.612a4.735,4.735,0,0,1-6.516,1.57c-17.844-10.9-40.307-13.368-66.762-7.324A4.738,4.738,0,0,1,35.719,94.9c28.95-6.617,53.783-3.766,73.816,8.476A4.737,4.737,0,0,1,111.105,109.889Zm9.3-20.7a5.924,5.924,0,0,1-8.15,1.956c-20.429-12.559-51.569-16.2-75.732-8.861a5.925,5.925,0,1,1-3.443-11.338c27.6-8.375,61.914-4.318,85.373,10.1a5.923,5.923,0,0,1,1.951,8.146Zm.8-21.548C96.712,53.1,56.3,51.758,32.913,58.856a7.108,7.108,0,1,1-4.127-13.6c26.846-8.15,71.474-6.575,99.674,10.166a7.107,7.107,0,1,1-7.251,12.226Z" transform="translate(1022.747 317.723)" fill="#1ed760"/>
  </g>
</svg>
