<svg xmlns="http://www.w3.org/2000/svg" xmlns:xlink="http://www.w3.org/1999/xlink" width="152" height="152" viewBox="0 0 152 152">
  <defs>
    <clipPath id="clip-path">
      <circle id="Elipse_512" data-name="Elipse 512" cx="76" cy="76" r="76" transform="translate(784 933)" fill="#1a1a1a"/>
    </clipPath>
  </defs>
  <g id="tiktok" transform="translate(-784 -933)">
    <circle id="Elipse_532" data-name="Elipse 532" cx="76" cy="76" r="76" transform="translate(784 933)" fill="#1a1a1a"/>
    <g id="Enmascarar_grupo_7" data-name="Enmascarar grupo 7" clip-path="url(#clip-path)">
      <g id="f51d8efe4c59493" transform="translate(823.432 968.278)">
        <path id="Trazado_37644" data-name="Trazado 37644" d="M48.561,28.007A32.1,32.1,0,0,0,67.287,34V20.566a18.964,18.964,0,0,1-3.932-.411V30.726a32.108,32.108,0,0,1-18.725-5.989V52.144A24.843,24.843,0,0,1,5.966,72.769a24.84,24.84,0,0,0,42.6-17.356V28.007Zm4.851-13.549A18.714,18.714,0,0,1,48.561,3.5V1.772H44.835a18.8,18.8,0,0,0,8.578,12.686ZM14.642,62.248a11.363,11.363,0,0,1,12.49-17.7V30.821a25.063,25.063,0,0,0-3.931-.226V41.281a11.359,11.359,0,0,0-8.559,20.967Z" transform="translate(5.044 1.498)" fill="#ff004f"/>
        <path id="Trazado_37645" data-name="Trazado 37645" d="M47.872,24.737A32.108,32.108,0,0,0,66.6,30.726V20.154a18.8,18.8,0,0,1-9.942-5.7A18.8,18.8,0,0,1,48.078,1.772H38.289V55.412a11.363,11.363,0,0,1-20.405,6.836,11.36,11.36,0,0,1,8.559-20.966V30.595A24.821,24.821,0,0,0,9.21,72.769,24.843,24.843,0,0,0,47.872,52.144V24.737Z" transform="translate(1.801 1.498)" fill="#fff"/>
        <path id="Trazado_37646" data-name="Trazado 37646" d="M68.4,21.652V18.794a18.729,18.729,0,0,1-9.942-2.839A18.781,18.781,0,0,0,68.4,21.652ZM49.879,3.269q-.134-.767-.206-1.542V0H36.158V53.641a11.367,11.367,0,0,1-16.472,10.1A11.363,11.363,0,0,0,40.091,56.91V3.269ZM28.246,32.092V29.049a25.086,25.086,0,0,0-3.408-.231A24.822,24.822,0,0,0,11.011,74.266,24.821,24.821,0,0,1,28.246,32.092Z" fill="#00f2ea"/>
      </g>
    </g>
  </g>
</svg>
