<svg xmlns="http://www.w3.org/2000/svg" xmlns:xlink="http://www.w3.org/1999/xlink" width="152" height="152" viewBox="0 0 152 152">
  <defs>
    <clipPath id="clip-path">
      <circle id="Elipse_513" data-name="Elipse 513" cx="76" cy="76" r="76" transform="translate(995 933)" fill="#1a1a1a"/>
    </clipPath>
  </defs>
  <g id="vimeo" transform="translate(-995 -933)" clip-path="url(#clip-path)">
    <g id="_8c4c18acb1d7459" data-name="8c4c18acb1d7459" transform="translate(995 933)">
      <path id="Trazado_37647" data-name="Trazado 37647" d="M152,136.8A15.245,15.245,0,0,1,136.8,152H15.2A15.245,15.245,0,0,1,0,136.8V15.2A15.245,15.245,0,0,1,15.2,0H136.8A15.245,15.245,0,0,1,152,15.2Z" fill="#1ab7ea"/>
      <g id="Grupo_11069" data-name="Grupo 11069" transform="translate(6.927 9.991)">
        <path id="Trazado_37648" data-name="Trazado 37648" d="M114.085,47.774c-.443,9.3-6.974,22.139-19.593,38.411-13.062,16.936-24.131,25.46-33.1,25.46-5.645,0-10.295-5.2-14.169-15.5-2.546-9.52-5.2-18.929-7.749-28.448C36.6,57.4,33.5,52.2,30.179,52.2c-.664,0-3.21,1.55-7.527,4.538l-4.538-5.867c4.76-4.206,9.409-8.3,14.058-12.508q9.464-8.136,14.279-8.634c7.416-.664,12.066,4.428,13.837,15.276,1.882,11.844,3.21,19.15,3.874,22.028,2.1,9.741,4.538,14.722,7.084,14.722,1.992,0,4.981-3.21,9.077-9.52,3.985-6.31,6.2-11.18,6.42-14.5.553-5.424-1.55-8.191-6.42-8.191a18.619,18.619,0,0,0-7.084,1.55C78,35.6,86.965,28.181,100.248,28.624,109.989,28.845,114.638,35.266,114.085,47.774Z" transform="translate(0 0)" fill="#fff"/>
      </g>
    </g>
  </g>
</svg>
