<svg xmlns="http://www.w3.org/2000/svg" xmlns:xlink="http://www.w3.org/1999/xlink" width="152" height="152" viewBox="0 0 152 152">
  <defs>
    <clipPath id="clip-path">
      <circle id="Elipse_514" data-name="Elipse 514" cx="76" cy="76" r="76" transform="translate(1206 933)" fill="#f3f5f6"/>
    </clipPath>
  </defs>
  <g id="youtube" transform="translate(-1206 -933)">
    <circle id="Elipse_533" data-name="Elipse 533" cx="76" cy="76" r="76" transform="translate(1206 933)" fill="#f3f5f6"/>
    <g id="Enmascarar_grupo_9" data-name="Enmascarar grupo 9" clip-path="url(#clip-path)">
      <g id="g5" transform="translate(1230.654 973.05)">
        <path id="path7" d="M100.576,11.25A12.866,12.866,0,0,0,91.525,2.2C83.489,0,51.345,0,51.345,0S19.2,0,11.166,2.115A13.13,13.13,0,0,0,2.115,11.25C0,19.286,0,35.95,0,35.95S0,52.7,2.115,60.65A12.866,12.866,0,0,0,11.166,69.7c8.121,2.2,40.18,2.2,40.18,2.2s32.144,0,40.18-2.115a12.866,12.866,0,0,0,9.051-9.051c2.115-8.036,2.115-24.7,2.115-24.7s.085-16.749-2.115-24.785Z" fill="red"/>
        <path id="polygon9" d="M87.58,45.82l-26.73-15.4v30.79Z" transform="translate(-19.74 -9.87)" fill="#fff"/>
      </g>
    </g>
  </g>
</svg>
